<?xml version="1.0" encoding="utf-8"?>
<!-- Generator: Adobe Illustrator 21.0.0, SVG Export Plug-In . SVG Version: 6.00 Build 0)  -->
<svg version="1.1" id="Layer_1" xmlns="http://www.w3.org/2000/svg" xmlns:xlink="http://www.w3.org/1999/xlink" x="0px" y="0px"
	 viewBox="0 0 300 300" style="enable-background:new 0 0 300 300;" xml:space="preserve" >
<style type="text/css">
	.st0{fill:#FFC501;}
	.st1{fill:#2F4358;}
	.st2{fill:#F59326;}
	.st3{fill:#3898D4;}
	.st4{fill:#19334B;}
	.st5{fill:#343D50;}
</style>
<title>1</title>
<circle class="st0" cx="150.9" cy="150.8" r="150"/>
<path class="st1" d="M201.9,189.6l-110.5,0.1c-3.7,0-6.8-3-6.8-6.8l0,0l-0.1-77.8c0-3.6,2.9-6.5,6.5-6.5l0,0l111-0.1
	c3.6,0,6.6,2.9,6.6,6.5l0,0l0.1,77.8C208.6,186.5,205.6,189.6,201.9,189.6z"/>
<path class="st2" d="M201.8,201.4l-110.5,0.1c-3.7,0-6.8-3-6.8-6.8l0,0v-84.3l117.3-0.1c3.7,0,6.8,3,6.8,6.7l0,0l0.1,77.5
	C208.6,198.4,205.6,201.4,201.8,201.4L201.8,201.4z"/>
<path class="st3" d="M174,138.9h32.7c4.9,0,8.8,3.9,8.8,8.8v16.4c0,4.9-3.9,8.8-8.8,8.8H174c-4.9,0-8.8-3.9-8.8-8.8v-16.4
	C165.2,142.9,169.2,138.9,174,138.9z"/>
<ellipse transform="matrix(8.465791e-02 -0.9964 0.9964 8.465791e-02 11.8084 324.6012)" class="st4" cx="182.6" cy="155.9" rx="9.9" ry="9.9"/>
<path class="st5" d="M191.9,190.4h-2.3c-0.7,0-1.3-0.6-1.3-1.3s0.6-1.3,1.3-1.3h2.3c0.7,0,1.3,0.6,1.3,1.3S192.7,190.4,191.9,190.4
	L191.9,190.4z"/>
<path class="st5" d="M182.6,190.4h-2.3c-0.7,0-1.3-0.6-1.3-1.3s0.6-1.3,1.3-1.3h2.3c0.7,0,1.3,0.6,1.3,1.3
	C183.9,189.9,183.3,190.4,182.6,190.4L182.6,190.4L182.6,190.4z"/>
<path class="st5" d="M173.2,190.4h-2.3c-0.7,0-1.3-0.5-1.4-1.2c0-0.7,0.5-1.3,1.2-1.4c0.1,0,0.1,0,0.2,0h2.3c0.7,0,1.3,0.6,1.3,1.3
	C174.5,189.9,173.9,190.5,173.2,190.4L173.2,190.4z"/>
<path class="st5" d="M163.9,190.5h-2.3c-0.7,0-1.3-0.6-1.3-1.3s0.6-1.3,1.3-1.3h2.3c0.7,0,1.3,0.5,1.4,1.2c0,0.7-0.5,1.3-1.2,1.4
	C164,190.5,163.9,190.5,163.9,190.5L163.9,190.5z"/>
<path class="st5" d="M154.5,190.5h-2.3c-0.7,0-1.3-0.6-1.3-1.3s0.6-1.3,1.3-1.3l0,0h2.3c0.7,0,1.3,0.6,1.3,1.3
	C155.8,189.9,155.3,190.5,154.5,190.5L154.5,190.5z"/>
<path class="st5" d="M145.1,190.5h-2.3c-0.7,0-1.3-0.6-1.3-1.3s0.6-1.3,1.3-1.3l0,0h2.3c0.7,0,1.3,0.6,1.3,1.3
	S145.8,190.5,145.1,190.5L145.1,190.5z"/>
<path class="st5" d="M135.7,190.5h-2.3c-0.7,0-1.3-0.6-1.3-1.3s0.6-1.3,1.3-1.3h2.3c0.7,0,1.3,0.6,1.3,1.3S136.4,190.5,135.7,190.5
	L135.7,190.5L135.7,190.5z"/>
<path class="st5" d="M126.4,190.5h-2.3c-0.7,0-1.3-0.5-1.4-1.2c0-0.7,0.5-1.3,1.2-1.4c0.1,0,0.1,0,0.2,0h2.3c0.7,0,1.3,0.6,1.3,1.3
	C127.7,189.9,127.1,190.5,126.4,190.5L126.4,190.5L126.4,190.5z"/>
<path class="st5" d="M117,190.5h-2.3c-0.7,0-1.3-0.6-1.3-1.3s0.6-1.3,1.3-1.3h2.3c0.7,0,1.3,0.5,1.4,1.2c0,0.7-0.5,1.3-1.2,1.4
	C117.1,190.5,117.1,190.5,117,190.5L117,190.5z"/>
<path class="st5" d="M107.7,190.5h-2.3c-0.7,0-1.3-0.6-1.3-1.3s0.6-1.3,1.3-1.3h2.3c0.7,0,1.3,0.6,1.3,1.3S108.4,190.5,107.7,190.5
	L107.7,190.5z"/>
<path class="st5" d="M98.5,189.8c-0.2,0-0.5-0.1-0.7-0.2c-0.8-0.5-1.5-1.2-2.1-2c-0.4-0.6-0.3-1.4,0.3-1.8c0.6-0.4,1.4-0.3,1.8,0.3
	l0,0c0.3,0.5,0.8,0.9,1.3,1.2c0.6,0.4,0.8,1.2,0.5,1.8C99.4,189.5,98.9,189.7,98.5,189.8z"/>
<path class="st5" d="M95.8,181.4c-0.7,0-1.3-0.6-1.3-1.3v-2.3c0-0.7,0.6-1.3,1.3-1.3s1.3,0.6,1.3,1.3v2.3
	C97.1,180.8,96.5,181.3,95.8,181.4L95.8,181.4z"/>
<path class="st5" d="M95.8,172c-0.7,0-1.3-0.6-1.3-1.3v-2.3c0-0.7,0.6-1.3,1.3-1.3s1.3,0.6,1.3,1.3l0,0v2.3
	C97.1,171.4,96.5,172,95.8,172z"/>
<path class="st5" d="M95.8,162.7c-0.7,0-1.3-0.6-1.3-1.3v-2.3c0-0.7,0.6-1.3,1.3-1.3s1.3,0.6,1.3,1.3v2.3
	C97.1,162.1,96.5,162.7,95.8,162.7z"/>
<path class="st5" d="M95.8,153.3c-0.7,0-1.3-0.6-1.3-1.3v-2.3c0-0.7,0.5-1.3,1.2-1.4c0.7-0.1,1.3,0.5,1.4,1.2c0,0.1,0,0.1,0,0.2v2.3
	C97.1,152.7,96.5,153.3,95.8,153.3z"/>
<path class="st5" d="M95.8,144c-0.7,0-1.3-0.6-1.3-1.3v-2.3c0-0.7,0.6-1.3,1.3-1.3s1.3,0.6,1.3,1.3l0,0v2.3
	C97.1,143.4,96.5,144,95.8,144z"/>
<path class="st5" d="M95.8,134.6c-0.7,0-1.3-0.6-1.3-1.3V131c0-0.7,0.6-1.3,1.3-1.3s1.3,0.6,1.3,1.3l0,0v2.3
	C97.1,134,96.5,134.6,95.8,134.6L95.8,134.6z"/>
<path class="st5" d="M95.5,124.7c-0.7-0.1-1.2-0.7-1.1-1.5l0.1-0.9c0.1-0.6,0.2-1.1,0.4-1.7c0.3-0.7,1-1,1.7-0.7
	c0.7,0.3,1,1,0.7,1.7c-0.1,0.3-0.2,0.7-0.3,1l-0.1,0.9C96.8,124.3,96.2,124.8,95.5,124.7z"/>
<path class="st5" d="M189.1,119h-2.3c-0.7,0-1.3-0.6-1.3-1.3c0-0.7,0.6-1.3,1.3-1.3h2.3c0.7,0,1.3,0.6,1.3,1.3
	C190.4,118.4,189.8,119,189.1,119L189.1,119L189.1,119z"/>
<path class="st5" d="M179.7,119h-2.3c-0.7,0-1.3-0.6-1.3-1.3c0-0.7,0.6-1.3,1.3-1.3l0,0h2.3c0.7,0,1.3,0.6,1.3,1.3
	C181,118.4,180.5,119,179.7,119L179.7,119z"/>
<path class="st5" d="M170.4,119h-2.3c-0.7,0-1.3-0.6-1.3-1.3c0-0.7,0.6-1.3,1.3-1.3l0,0h2.3c0.7,0,1.3,0.7,1.2,1.4
	C171.6,118.5,171,119,170.4,119L170.4,119z"/>
<path class="st5" d="M161,119h-2.3c-0.7,0-1.3-0.6-1.3-1.3c0-0.7,0.6-1.3,1.3-1.3h2.3c0.7,0,1.3,0.6,1.3,1.3
	C162.3,118.4,161.8,119,161,119L161,119L161,119z"/>
<path class="st5" d="M151.7,119h-2.3c-0.7,0-1.3-0.6-1.3-1.3c0-0.7,0.6-1.3,1.3-1.3l0,0h2.3c0.7,0,1.3,0.6,1.3,1.3
	C153,118.5,152.4,119,151.7,119L151.7,119L151.7,119z"/>
<path class="st5" d="M142.2,119h-2.3c-0.7,0-1.3-0.6-1.3-1.3c0-0.7,0.6-1.3,1.3-1.3l0,0h2.3c0.7,0,1.3,0.6,1.3,1.3
	C143.5,118.5,143,119,142.2,119L142.2,119z"/>
<path class="st5" d="M132.9,119.1h-2.3c-0.7,0-1.3-0.5-1.4-1.2c0-0.7,0.5-1.3,1.2-1.4c0.1,0,0.1,0,0.2,0h2.3c0.7,0,1.3,0.6,1.3,1.3
	C134.2,118.5,133.6,119.1,132.9,119.1L132.9,119.1z"/>
<path class="st5" d="M123.6,119.1h-2.3c-0.7,0-1.3-0.6-1.3-1.3c0-0.7,0.6-1.3,1.3-1.3l0,0h2.2c0.7,0,1.3,0.5,1.4,1.2
	C124.9,118.4,124.4,119,123.6,119.1C123.7,119.1,123.6,119.1,123.6,119.1L123.6,119.1z"/>
<path class="st5" d="M114.2,119.1h-2.3c-0.7,0-1.3-0.6-1.3-1.3c0-0.7,0.6-1.3,1.3-1.3l0,0h2.3c0.7,0,1.3,0.6,1.3,1.3
	C115.5,118.5,114.9,119.1,114.2,119.1z"/>
<path class="st5" d="M104.9,119.1h-2.4c-0.7,0-1.3-0.6-1.3-1.3c0-0.7,0.6-1.3,1.3-1.3h2.3c0.7,0,1.3,0.6,1.3,1.3
	C106.2,118.5,105.6,119.1,104.9,119.1L104.9,119.1L104.9,119.1z"/>
<path d="M126.1,49c-1.9-2.6-5.5-3.1-8.1-1.1c-0.4,0.3-0.7,0.6-1,1c-1,1.5-1.5,3.8-1.5,6.9c0,3,0.5,5.2,1.5,6.8
	c1,1.5,2.7,2.4,4.5,2.3c1.8,0.1,3.5-0.7,4.6-2.2c1-1.5,1.5-3.8,1.5-6.8C127.6,52.8,127.1,50.5,126.1,49z M119.7,51
	c0.3-1,1.4-1.6,2.4-1.3c0.6,0.2,1.1,0.7,1.3,1.3c0.5,1.5,0.7,3.1,0.6,4.7c0.1,1.6-0.1,3.1-0.6,4.6c-0.2,0.8-1,1.4-1.8,1.4
	c-0.8,0-1.6-0.5-1.8-1.3c-0.7-3.1-0.7-6.3,0-9.3L119.7,51z"/>
<path d="M146.6,63.9c0.8-0.6,1.4-1.5,1.8-2.4c0.4-1.2,0.7-2.5,0.6-3.7c0.1-1.8-0.4-3.6-1.3-5.1c-0.8-1.2-2.2-1.9-3.7-1.8
	c-1.5-0.1-3,0.7-3.7,2.1h-0.2l-0.5-1.7h-2.9v19.4h3.6V65c0-0.2-0.1-0.8-0.2-2h0.2c0.9,1.1,2.2,1.8,3.7,1.7
	C144.9,64.8,145.8,64.5,146.6,63.9z M144.7,54.7c0.5,0.9,0.7,2,0.6,3c0,2.7-0.8,4.1-2.4,4.1c-0.8,0.1-1.6-0.3-2-0.9
	c-0.5-0.9-0.7-2-0.6-3.1v-0.5c-0.1-1,0.2-1.9,0.6-2.8c0.5-0.6,1.2-0.9,2-0.8C143.6,53.7,144.3,54.1,144.7,54.7L144.7,54.7z"/>
<path d="M155.4,64.4l-0.2,0.7c-0.2,0.7-0.6,1.3-1.1,1.8c-0.5,0.4-1.1,0.6-1.7,0.6c-0.5,0-0.9,0-1.4-0.2v2.9c0.6,0.1,1.2,0.2,1.8,0.2
	c1.2,0,2.4-0.3,3.3-1c1-0.8,1.8-1.9,2.2-3.2l5.6-15.2h-3.9l-2.5,7.6c-0.3,0.8-0.4,1.5-0.5,2.3H157c-0.1-0.8-0.2-1.6-0.4-2.3
	l-2.5-7.6h-3.9L155.4,64.4z"/>
<path d="M166.7,62.6c1.1,1.5,2.9,2.3,4.7,2.2c1.8,0.1,3.5-0.6,4.8-1.8c1.2-1.4,1.8-3.3,1.7-5.1c0.1-1.6-0.4-3.1-1.4-4.4
	c-1.6-1.6-4-2-6.1-1c-0.7,0.3-1.2,0.9-1.7,1.5h-0.2c0-0.8,0.2-1.6,0.4-2.4c0.2-0.6,0.6-1,1.1-1.4c0.7-0.4,1.4-0.6,2.2-0.7
	c2.6-0.4,4.4-0.6,5.5-0.8l-0.4-3.2c-2.4,0.3-4.1,0.6-5.3,0.8c-2.1,0.3-4.1,1.4-5.4,3.1c-1.2,1.6-1.7,4-1.7,7
	C164.8,58.6,165.4,60.8,166.7,62.6z M169.4,60.5c-0.6-1.2-0.8-2.4-0.8-3.7c0.2-0.4,0.5-0.7,0.8-1c0.3-0.3,0.7-0.6,1.2-0.8
	c0.4-0.2,0.8-0.3,1.3-0.3c1.5,0,2.3,1.2,2.3,3.5c0,2.3-0.9,3.6-2.6,3.6C170.7,61.8,169.9,61.3,169.4,60.5z"/>
<path d="M180.9,64.3c0.4,0.4,1,0.6,1.5,0.5c0.6,0,1.1-0.2,1.5-0.6c0.7-0.9,0.7-2.1,0-3c-0.4-0.4-1-0.6-1.5-0.5
	c-0.6,0-1.1,0.1-1.5,0.5c-0.4,0.4-0.6,1-0.5,1.5C180.3,63.4,180.5,63.9,180.9,64.3z"/>
</svg>
