<?xml version="1.0" encoding="utf-8"?>
<!-- Generator: Adobe Illustrator 21.0.0, SVG Export Plug-In . SVG Version: 6.00 Build 0)  -->
<svg version="1.1" id="Layer_1" xmlns="http://www.w3.org/2000/svg" xmlns:xlink="http://www.w3.org/1999/xlink" x="0px" y="0px"
	 viewBox="0 0 300 300" style="enable-background:new 0 0 300 300;" xml:space="preserve" >
<style type="text/css">
	.st0{fill:#FFC501;}
	.st1{fill:#FFA726;}
	.st2{fill:#FFFFFF;}
	.st3{fill:#6D4C41;}
	.st4{font-family:'Arial-BoldMT';}
	.st5{font-size:20.1329px;}
</style>
<title>2</title>
<circle class="st0" cx="150" cy="150" r="150"/>
<polyline class="st1" points="222.1,248.5 222.1,180.4 77.9,180.4 77.9,248.5 "/>
<path class="st1" d="M122,248.5c0-10.2,12.6-24.2,28-24.2s28,14,28,24.2"/>
<rect x="89.4" y="197.2" class="st2" width="19.1" height="9"/>
<rect x="192.1" y="197.2" class="st2" width="19.1" height="9"/>
<rect x="89.4" y="206.1" class="st3" width="19.1" height="4.7"/>
<rect x="192.1" y="206.1" class="st3" width="19.1" height="4.7"/>
<rect x="92.5" y="51.5" class="st3" width="115.1" height="12.9"/>
<rect x="69" y="175.8" class="st3" width="162" height="9"/>
<rect x="92.5" y="59.6" class="st1" width="115.1" height="116.3"/>
<rect x="104.7" y="69.6" class="st2" width="14.6" height="15"/>
<rect x="102.8" y="84.6" class="st3" width="18.4" height="4.1"/>
<rect x="130" y="69.6" class="st2" width="14.6" height="15"/>
<rect x="128.1" y="84.6" class="st3" width="18.4" height="4.1"/>
<rect x="155.4" y="69.6" class="st2" width="14.6" height="15"/>
<rect x="153.5" y="84.6" class="st3" width="18.4" height="4.1"/>
<rect x="180.7" y="69.6" class="st2" width="14.6" height="15"/>
<rect x="178.8" y="84.6" class="st3" width="18.4" height="4.1"/>
<rect x="104.7" y="96.2" class="st2" width="14.6" height="15"/>
<rect x="102.8" y="111.2" class="st3" width="18.4" height="4.1"/>
<rect x="130" y="96.2" class="st2" width="14.6" height="15"/>
<rect x="128.1" y="111.2" class="st3" width="18.4" height="4.1"/>
<rect x="155.4" y="96.2" class="st2" width="14.6" height="15"/>
<rect x="153.5" y="111.2" class="st3" width="18.4" height="4.1"/>
<rect x="180.7" y="96.2" class="st2" width="14.6" height="15"/>
<rect x="178.8" y="111.2" class="st3" width="18.4" height="4.1"/>
<rect x="104.7" y="122.7" class="st2" width="14.6" height="15"/>
<rect x="102.8" y="137.8" class="st3" width="18.4" height="4.1"/>
<rect x="130" y="122.7" class="st2" width="14.6" height="15"/>
<rect x="128.1" y="137.8" class="st3" width="18.4" height="4.1"/>
<rect x="155.4" y="122.7" class="st2" width="14.6" height="15"/>
<rect x="153.5" y="137.8" class="st3" width="18.4" height="4.1"/>
<rect x="180.7" y="122.7" class="st2" width="14.6" height="15"/>
<rect x="178.8" y="137.8" class="st3" width="18.4" height="4.1"/>
<rect x="104.7" y="149.3" class="st2" width="14.6" height="15"/>
<rect x="102.8" y="164.3" class="st3" width="18.4" height="4.1"/>
<rect x="130" y="149.3" class="st2" width="14.6" height="15"/>
<rect x="128.1" y="164.3" class="st3" width="18.4" height="4.1"/>
<rect x="155.4" y="149.3" class="st2" width="14.6" height="15"/>
<rect x="153.5" y="164.3" class="st3" width="18.4" height="4.1"/>
<rect x="180.7" y="149.3" class="st2" width="14.6" height="15"/>
<rect x="178.8" y="164.3" class="st3" width="18.4" height="4.1"/>
<text transform="matrix(1.0013 0 0 1 126.28 209.1682)" class="st2 st4 st5">BANK</text>
</svg>
