<?xml version="1.0" encoding="utf-8"?>
<!-- Generator: Adobe Illustrator 21.0.0, SVG Export Plug-In . SVG Version: 6.00 Build 0)  -->
<svg version="1.1" id="objects" xmlns="http://www.w3.org/2000/svg" xmlns:xlink="http://www.w3.org/1999/xlink" x="0px" y="0px"
	 viewBox="0 0 300 300" style="enable-background:new 0 0 300 300;" xml:space="preserve" >
<style type="text/css">
	.st0{fill:#FFC501;}
	.st1{fill:#25A69A;}
	.st2{fill:#F3715B;}
	.st3{fill:#313D4D;}
	.st4{fill:#DCB99D;}
	.st5{fill:#D1AD93;}
	.st6{fill:#FFF6DB;}
	.st7{opacity:0.48;fill:#737373;enable-background:new    ;}
	.st8{fill:#F25F58;}
	.st9{opacity:0.27;fill:#FFFFFF;enable-background:new    ;}
	.st10{fill:#24A9E0;}
	.st11{fill:#99C4CD;}
</style>
<title>3</title>
<circle class="st0" cx="150" cy="150" r="150"/>
<path class="st1" d="M188.6,182c1.7,2.1,1.1,5.6-1.5,7.6l0,0c-2.6,2.1-6,2-7.8-0.1l-11.6-14.2c-1.5-1.1,8.5-8.6,9.3-7.5L188.6,182z"
	/>
<path class="st2" d="M192.2,178.8L192.2,178.8c-0.5-0.6-1.3-0.8-1.8-0.4l-15.5,12.5c-0.5,0.5-0.6,1.3-0.1,1.8l2.9,3.6l0,0l20.7,25.5
	c5.2,6.5,13.4,8.6,18.2,4.7c4.8-3.9,4.4-12.3-0.8-18.8L192.2,178.8L192.2,178.8z"/>
<polygon class="st3" points="111.4,140.1 109.2,147.7 93.2,147.7 99.5,114 99.6,113.4 99.6,113.5 "/>
<path class="st4" d="M160.4,108.4l-10-3.7c-7.4-2.5-5.8-6.7-5.8-6.7h-15.5c0,0,1.6,4.3-5.8,6.7l-10,3.7l23.5-0.3L160.4,108.4z"/>
<path class="st5" d="M136.8,100.1l-11.5,9.4l-10.3-2.9l14.7-3.8l-1.1-2.3c0,0,0.9-0.6,0.5-2.3C131.6,99.4,134.1,100.1,136.8,100.1z"
	/>
<rect x="113.3" y="108.4" class="st6" width="51.6" height="37.5"/>
<path class="st7" d="M127.6,101.4c0.1,0,7.6,7.6,7.6,7.6l-11.4,6.5l-2.6-9.7L127.6,101.4z"/>
<path class="st7" d="M145.6,101.1c-0.1,0-7.6,7.6-7.6,7.6l11.5,6.5l2.6-9.7L145.6,101.1z"/>
<path class="st8" d="M139.8,112.9c-0.3,0.3-0.8,0.5-1.2,0.4h-3.7c-0.5,0-0.9-0.1-1.2-0.4l-2.1-4.2c-0.4-0.8,0.2-1.6,1.3-1.6h7.8
	c1.2,0,1.8,0.8,1.3,1.6L139.8,112.9z"/>
<polygon class="st8" points="142.3,147.7 131,147.7 131,147.1 131.1,146 131.4,142.7 131.4,142.4 131.4,142 133.5,112.9 133.5,113 
	139.8,113 139.8,113 141.9,142.9 142,143.4 142,144.3 142.1,146 "/>
<path class="st6" d="M129.1,99.5c0.1,0,7.6,7.6,7.6,7.6l-11.4,6.6l-2.6-9.7L129.1,99.5z"/>
<path class="st6" d="M144.4,99.5c-0.1,0-7.7,7.6-7.7,7.6l11.6,6.6l2.4-9.7L144.4,99.5z"/>
<path class="st3" d="M156.1,105.2l-0.3-0.1c-1.7-0.5-3.4-0.8-5.2-1.1c-0.3,0-0.5-0.1-0.9-0.1h-0.2l-0.1,0.4l-0.7,3.9v0.1l-0.9,5
	l-0.1,0.8l-5.5,30.1l-0.1,0.5l-0.2,1.3l-0.3,1.7h0.8v0.4l0.1-0.4h26.3c1.4-11.6,3.1-22.5,5.2-33.5c0-0.2,0.1-0.5,0.1-0.6
	c0,0,0,0,0-0.1C172.9,112.1,164,107.5,156.1,105.2z M131.7,144.8l-0.4-2.1l-5.2-28.5l-0.2-0.9l-0.7-3.9l-0.2-1.1v-0.1l-0.7-3.9v-0.1
	v-0.3h-0.3c-0.3,0-0.7,0.1-1.1,0.1c-1.9,0.2-3.7,0.6-5.5,1.2c-7.7,2.3-16.4,6.7-17.7,8.2l0,0c0,0.2,0.1,0.6,0.1,0.7
	c2.1,11,3.7,21.9,5.2,33.5h27.2l-0.3-1.7L131.7,144.8z"/>
<path class="st9" d="M160,127.6l-9,18.2l-0.8,1.6h-7.7l0.3-1.6l3.3-18.1l2.5-13.1l1.2-6.3v-0.1l0.4-2l0.2-1.2h0.1
	c0.6,0.2,1.2,0.3,1.6,0.4c1.4,0.4,2.9,0.9,4.2,1.5l0.8,0.3l0.1,1.1l0,0l1.1,15l-2.6,0.9l-2,0.7l4.7,2L160,127.6z"/>
<path class="st10" d="M159.1,125.7l-0.6,1.3l-9.4,19l-0.8,1.7h-5.9l-0.1,0.4v-0.4h-1.2l0.3-1.7l0.5-3.1l5.5-28.7l0.2-0.8l0.9-4.9
	v-0.1l0.8-3.9l0.1-0.6l0.1-0.6h0.1c2.7,0.8,5,1.5,6.1,1.8l0.3,0.1l0.1,1.7v0.1l0.1,1.4l0,0l1,13.1l-4.6,1.6l2.9,1.2L159.1,125.7z"/>
<path class="st9" d="M131.1,147.4h-7.8l-0.8-1.6l-8.9-18.2l1.6-0.7l4.7-2l-2.1-0.7l-2.5-0.9l1.1-15l0,0l0.1-1.1l0.5-0.2l0.3-0.1
	c1.5-0.6,3-1.1,4.5-1.5c0.4-0.1,0.8-0.2,1.3-0.3h0.1l0.3,1.4l0.3,1.8v0.1l0.2,0.7l1.1,5.7l2.5,13l3.3,18.1l0.2,1.1L131.1,147.4z"/>
<path class="st10" d="M132.1,146l0.3,1.7h-7.1l-0.8-1.7l-9.4-19l-0.7-1.4l3.2-1.4l3-1.3l-4.6-1.6l1-13l0,0l0.1-1.2v-0.2v-0.1
	l0.1-0.9v-0.8c2.5-0.9,3.1-1.3,6.7-2.2l0,0l0.1,0.7l0.1,0.5v0.1l0.7,3.9v0.1l0.2,1.1l0.7,3.8l0.2,0.9l2.2,11.6l3,16.3L132.1,146z"/>
<polygon class="st3" points="180.4,147.7 164.4,147.7 163.9,146 162.2,140.2 164.8,134.2 174.1,113.5 174.1,113.4 174.2,114.2 "/>
<polygon class="st11" points="142.4,147.5 142.3,147.9 142.3,147.5 "/>
<path class="st1" d="M181,92.6c-19.7-24.4-55.5-28.1-79.9-8.4s-28.2,55.4-8.4,79.8s55.5,28.1,79.9,8.4S200.8,117,181,92.6z
	 M136.9,175.2c-25.9,0-47-21-47-46.9s21-46.9,47-46.9s47,21,47,46.9S162.8,175.2,136.9,175.2L136.9,175.2z"/>
</svg>
