<?xml version="1.0" encoding="utf-8"?>
<!-- Generator: Adobe Illustrator 21.0.0, SVG Export Plug-In . SVG Version: 6.00 Build 0)  -->
<svg version="1.1" id="Layer_1" xmlns="http://www.w3.org/2000/svg" xmlns:xlink="http://www.w3.org/1999/xlink" x="0px" y="0px"
	 viewBox="0 0 300 300" style="enable-background:new 0 0 300 300;" xml:space="preserve" >
<style type="text/css">
	.st0{fill:#FFC501;}
	.st1{fill:#343E48;}
	.st2{fill:#475059;}
	.st3{fill:#FFFFFF;}
	.st4{fill:#27313D;}
	.st5{fill:#7C1617;}
	.st6{fill:#F9F9F9;}
	.st7{fill:#D8D7D4;}
</style>
<title>4</title>
<circle class="st0" cx="150" cy="150" r="150"/>
<path class="st1" d="M203.5,74v122.3h-3v22.2h3v2.9h-93.6c-1.5,0-3.1-0.2-4.5-0.7c-6.2-1.9-8.4-7.5-9.6-13.9L95.5,91.2
	c0-9.1,6.8-17.2,16-17.2L203.5,74z"/>
<polygon class="st2" points="204.5,197.9 110.8,197.9 110.8,78.8 204.5,78.7 "/>
<path class="st3" d="M201.5,200.7V223h-90.1c-3.3,0.3-6.6-0.7-9.1-2.9c-2.1-1.9-3.4-4.6-3.5-7.5c0-0.2,0-0.4,0-0.6v-0.6
	c0-0.2,0-0.5,0-0.7c0.2-3.5,2.1-6.6,5.2-8.4c0.8-0.4,1.7-0.8,2.6-1.1c1.5-0.6,3-0.5,4.8-0.5H201.5z"/>
<path class="st4" d="M98.9,210.7c0.2-3.3,2-6.3,4.8-8.2c0.6-0.4,1.2-0.7,1.8-1c1.3-0.6,2.7-0.8,4.2-0.8h93.9v-2.9h-93.9
	c-7.6,0-13.7,6.1-13.7,13.6c0,0,0,0,0,0.1v0.6c0,5.9,3.8,11.2,9.6,13.2c1.4,0.4,2.8,0.7,4.2,0.7h93.9v-2.9h-93.8
	c-2.9,0-5.7-1.2-7.7-3.3c-1.9-1.9-3-4.5-3.2-7.1c0-0.2,0-0.4,0-0.6v-0.6C98.9,211.2,98.9,211,98.9,210.7z"/>
<path class="st5" d="M102.2,219.7c2.1,2.1,4.9,3.2,7.8,3.2l0,0C107.1,222.9,104.3,221.7,102.2,219.7z"/>
<path class="st6" d="M188.5,92.4h-65.8v95.8h67.8V92.4H188.5z M187.6,94.3v90.9h-63.8V94.3H187.6z"/>
<polygon class="st6" points="123.9,186.3 188.3,186.3 188.3,186.3 "/>
<polygon class="st6" points="123.9,94.3 188.3,94.3 188.3,94.3 "/>
<polygon class="st7" points="115.6,200.7 201.5,209.8 201.5,200.7 "/>
<rect x="136.7" y="115.6" class="st3" width="38.9" height="4.8"/>
<rect x="136.7" y="125.3" class="st3" width="38.9" height="4.8"/>
<rect x="136.7" y="135" class="st3" width="38.9" height="4.8"/>
</svg>
