<?xml version="1.0" encoding="utf-8"?>
<!-- Generator: Adobe Illustrator 21.0.0, SVG Export Plug-In . SVG Version: 6.00 Build 0)  -->
<svg version="1.1" id="Layer_1" xmlns="http://www.w3.org/2000/svg" xmlns:xlink="http://www.w3.org/1999/xlink" x="0px" y="0px"
	 viewBox="0 0 300 300" style="enable-background:new 0 0 300 300;" xml:space="preserve" >
<style type="text/css">
	.st0{fill:#FFC501;}
	.st1{fill:#FDFEFE;}
	.st2{fill:#313D4D;}
	.st3{fill:#ED5C56;}
	.st4{fill:#848484;}
	.st5{fill:#FCB64A;}
</style>
<title>5</title>
<circle class="st0" cx="150" cy="150" r="150"/>
<rect x="80.4" y="94.8" class="st1" width="141.2" height="93.2"/>
<path class="st2" d="M227.7,99.5c0-4.4-3.6-8-8-8H83c-4.4,0-8,3.6-8,8l0,0v83.6c0,4.4,3.6,8,8,8l0,0h136.8c4.4,0,8-3.6,8-8l0,0V99.5
	z M219.6,177.3c0,4.4-3.6,8-8,8H90.8c-4.4,0-8-3.6-8-8l0,0v-71.5c0-4.4,3.6-8,8-8h120.9c4.4,0,8,3.6,8,8l0,0L219.6,177.3z"/>
<path class="st2" d="M66.2,193.9c-1.2,0,4.7,14.6,11.4,14.6h144.9c6.7,0,12.6-14.6,11.4-14.6H66.2"/>
<path class="st1" d="M138.3,198.5h26.3c1.2,0,2.1,1,2.1,2.1v0.8c0,1.2-1,2.1-2.1,2.1h-26.3c-1.2,0-2.1-1-2.1-2.1v-0.8
	C136.1,199.5,137.1,198.5,138.3,198.5z"/>
<path class="st3" d="M182.7,112.7h-1.9c-0.3-1.1-0.7-2.1-1.3-3l0,0l1.4-1.4c0.3-0.3,0.3-0.8,0-1.1l0,0l-2.4-2.4
	c-0.3-0.3-0.8-0.3-1.1,0l0,0l-1.4,1.4c-0.9-0.6-1.9-1-3-1.2v-2c0-0.4-0.4-0.8-0.8-0.8h-3.3c-0.4,0-0.7,0.4-0.7,0.8l0,0v1.9
	c-1.1,0.3-2.1,0.7-3,1.3l0,0l-1.4-1.4c-0.3-0.3-0.8-0.3-1.1,0l0,0l-2.4,2.4c-0.3,0.3-0.3,0.8,0,1.1l0,0l1.4,1.4c-0.6,0.9-1,2-1.2,3
	h-1.9c-0.4,0-0.8,0.3-0.8,0.7l0,0v3.4c0,0.4,0.3,0.8,0.7,0.8l0,0h1.9c0.3,1.1,0.7,2.1,1.3,3l0,0l-1.4,1.4c-0.3,0.3-0.3,0.8,0,1.1
	l0,0l2.4,2.4c0.3,0.3,0.8,0.3,1.1,0l0,0l1.4-1.4c0.9,0.6,2,1,3,1.2l0,0v1.9c0,0.4,0.3,0.8,0.7,0.8l0,0h3.4c0.4,0,0.8-0.4,0.8-0.8
	v-1.9c1.1-0.3,2.1-0.7,3-1.3l0,0l1.4,1.4c0.3,0.3,0.8,0.3,1.1,0l0,0l2.4-2.4c0.3-0.3,0.3-0.8,0-1.1l0,0l-1.4-1.4c0.6-0.9,1-2,1.2-3
	h1.9c0.4,0,0.8-0.3,0.8-0.8v-3.4C183.5,113.1,183.1,112.7,182.7,112.7z M168.6,119.7l-0.1-0.1c-0.1-0.1-0.3-0.1-0.4-0.2l-0.2-0.1
	l-0.2-0.1l-0.1-0.1c-0.2-0.1-0.3-0.3-0.5-0.5s-0.3-0.3-0.4-0.5l-0.2-0.2c-0.1-0.2-0.3-0.5-0.4-0.7c-0.8-1.9-0.3-4.1,1.2-5.5l0.3-0.2
	l0.1-0.1l0.2-0.1c0.2-0.1,0.4-0.3,0.6-0.4l0.2-0.1c1.3-0.6,2.8-0.5,4.1,0.1l0.2,0.1c0.1,0.1,0.2,0.1,0.3,0.2l0.2,0.1l0.1,0.1
	l0.2,0.2c0.1,0.1,0.2,0.2,0.3,0.2c0.1,0.1,0.1,0.1,0.2,0.2s0.3,0.3,0.4,0.5l0.1,0.2c0,0.1,0.1,0.1,0.1,0.2c0.1,0.1,0.1,0.2,0.2,0.3
	c0.3,0.7,0.5,1.4,0.5,2.1c0,0.4-0.1,0.8-0.2,1.2c0,0.1,0,0.2-0.1,0.2c-0.1,0-0.1,0.2-0.1,0.3s-0.1,0.1-0.1,0.2c0,0,0,0.1-0.1,0.1
	l-0.1,0.3c0,0.1-0.1,0.1-0.1,0.2s-0.1,0.1-0.1,0.2l-0.1,0.1l-0.1,0.1l-0.1,0.2l-0.1,0.1c0,0.1-0.1,0.1-0.2,0.2l-0.1,0.1
	c-0.1,0.1-0.2,0.2-0.3,0.3l-0.1,0.1l-0.2,0.1l-0.2,0.1l-0.1,0.1l-0.2,0.1c-1.2,0.6-2.7,0.7-4,0.2L168.6,119.7z"/>
<rect x="90" y="104" class="st4" width="62.2" height="7.3"/>
<rect x="90" y="114.1" class="st4" width="62.2" height="7.3"/>
<rect x="90.2" y="153.5" class="st4" width="7.3" height="28"/>
<rect x="101.1" y="153.5" class="st4" width="7.3" height="28"/>
<rect x="112.1" y="153.5" class="st4" width="7.3" height="28"/>
<rect x="123" y="153.5" class="st4" width="7.3" height="28"/>
<rect x="134" y="153.5" class="st4" width="7.3" height="28"/>
<rect x="145" y="153.5" class="st4" width="7.3" height="28"/>
<rect x="188.4" y="102.2" class="st4" width="25.9" height="26"/>
<rect x="90.2" y="124.1" class="st5" width="28.7" height="26.7"/>
<rect x="123.5" y="124.1" class="st5" width="28.7" height="26.7"/>
<rect x="157.6" y="135.5" class="st4" width="56.7" height="5"/>
<rect x="157.6" y="143.6" class="st4" width="56.7" height="5"/>
<rect x="157.6" y="151.7" class="st4" width="56.7" height="5"/>
<rect x="157.6" y="160.4" class="st4" width="56.7" height="21.1"/>
</svg>
