<?xml version="1.0" encoding="utf-8"?>
<!-- Generator: Adobe Illustrator 21.0.0, SVG Export Plug-In . SVG Version: 6.00 Build 0)  -->
<svg version="1.1" id="Layer_1" xmlns="http://www.w3.org/2000/svg" xmlns:xlink="http://www.w3.org/1999/xlink" x="0px" y="0px"
	 viewBox="0 0 300 300" style="enable-background:new 0 0 300 300;" xml:space="preserve" >
<style type="text/css">
	.st0{fill:#FFC501;}
	.st1{fill:#FFFFFF;}
	.st2{fill:#6D4C41;}
	.st3{fill:#26A69A;}
	.st4{fill:#F9A825;}
	.st5{fill:#FAFAFA;}
	.st6{fill:#90A4AE;}
	.st7{fill:#046D8B;}
	.st8{fill:#E0E0E0;}
</style>
<title>6</title>
<circle class="st0" cx="150" cy="150" r="150"/>
<polyline class="st1" points="152.2,225.9 152.2,132.2 61.5,132.2 61.5,225.9 "/>
<polygon class="st2" points="72,102 141.7,102 152.1,132.7 61.7,132.7 "/>
<polyline class="st3" points="61.7,225.9 61.7,132.7 99.1,132.7 99.1,225.9 "/>
<rect x="134.7" y="140.4" class="st4" width="8.4" height="14.4"/>
<rect x="121.4" y="140.4" class="st4" width="8.4" height="14.4"/>
<rect x="108.2" y="140.4" class="st4" width="8.4" height="14.4"/>
<rect x="134.7" y="161.5" class="st4" width="8.4" height="14.4"/>
<rect x="121.4" y="161.5" class="st4" width="8.4" height="14.4"/>
<rect x="108.2" y="161.5" class="st4" width="8.4" height="14.4"/>
<rect x="134.7" y="181.6" class="st4" width="8.4" height="14.4"/>
<rect x="121.4" y="181.6" class="st4" width="8.4" height="14.4"/>
<rect x="108.2" y="181.6" class="st4" width="8.4" height="14.4"/>
<rect x="83" y="141.2" class="st1" width="9.3" height="7.8"/>
<rect x="68.4" y="141.2" class="st1" width="9.3" height="7.8"/>
<rect x="83" y="152.3" class="st2" width="9.3" height="7.8"/>
<rect x="68.4" y="152.3" class="st1" width="9.3" height="7.8"/>
<rect x="83" y="163.4" class="st2" width="9.3" height="7.8"/>
<rect x="68.4" y="163.4" class="st2" width="9.3" height="7.8"/>
<rect x="83" y="174.5" class="st1" width="9.3" height="7.8"/>
<rect x="68.4" y="174.5" class="st1" width="9.3" height="7.8"/>
<rect x="83" y="185.6" class="st1" width="9.3" height="7.8"/>
<rect x="68.4" y="185.6" class="st1" width="9.3" height="7.8"/>
<polyline class="st2" points="118.2,225.9 118.2,204.3 132.8,204.3 132.8,225.9 "/>
<rect x="104" y="154.1" class="st2" width="43.3" height="3.4"/>
<rect x="104" y="175.1" class="st2" width="43.3" height="3.4"/>
<polyline class="st2" points="104,195.1 104,198.5 147.3,198.5 147.3,195.1 "/>
<rect x="134" y="121.9" class="st1" width="7.9" height="6.7"/>
<rect x="122" y="121.9" class="st1" width="7.9" height="6.7"/>
<rect x="109.9" y="121.9" class="st1" width="7.9" height="6.7"/>
<rect x="85.7" y="94.2" class="st3" width="6.7" height="13.6"/>
<rect x="84.3" y="93.5" class="st3" width="9.4" height="2.6"/>
<rect x="174.2" y="77.9" class="st5" width="49.2" height="34.3"/>
<polygon class="st2" points="174.2,77.9 198.8,65 223.4,77.9 "/>
<rect x="190.2" y="84.7" class="st2" width="6.6" height="13.2"/>
<rect x="200.8" y="84.7" class="st2" width="6.6" height="13.2"/>
<polyline class="st6" points="159.1,226.7 159.1,92.9 238.5,92.9 238.5,226.7 "/>
<rect x="169.2" y="114.8" class="st5" width="10.4" height="10.4"/>
<rect x="185.9" y="114.8" class="st5" width="10.4" height="10.4"/>
<rect x="202.6" y="114.8" class="st5" width="10.4" height="10.4"/>
<rect x="219.3" y="114.8" class="st5" width="10.4" height="10.4"/>
<rect x="169.2" y="132.1" class="st5" width="10.4" height="10.4"/>
<rect x="185.9" y="132.1" class="st5" width="10.4" height="10.4"/>
<rect x="202.6" y="132.1" class="st5" width="10.4" height="10.4"/>
<rect x="219.3" y="132.1" class="st5" width="10.4" height="10.4"/>
<rect x="159.1" y="150.8" class="st2" width="79.4" height="5.5"/>
<rect x="169.2" y="162.5" class="st5" width="16.7" height="22.5"/>
<rect x="192.4" y="162.5" class="st5" width="16.7" height="22.5"/>
<rect x="215.6" y="162.5" class="st5" width="16.7" height="22.5"/>
<rect x="169.2" y="180.9" class="st7" width="16.7" height="4.1"/>
<rect x="192.4" y="180.9" class="st7" width="16.7" height="4.1"/>
<rect x="215.6" y="180.9" class="st7" width="16.7" height="4.1"/>
<path class="st8" d="M183.5,235v-21.5c0-7.3,5.9-13.2,13.1-13.2l0,0c7.3,0,13.1,5.9,13.2,13.2V235"/>
</svg>
