<?xml version="1.0" encoding="utf-8"?>
<!-- Generator: Adobe Illustrator 21.0.0, SVG Export Plug-In . SVG Version: 6.00 Build 0)  -->
<svg version="1.1" id="Layer_1" xmlns="http://www.w3.org/2000/svg" xmlns:xlink="http://www.w3.org/1999/xlink" x="0px" y="0px"
	 viewBox="0 0 300 300" style="enable-background:new 0 0 300 300;" xml:space="preserve" >
<style type="text/css">
	.st0{fill:#FFC501;}
	.st1{fill:#FDFEFE;}
	.st2{fill:#25A69A;}
	.st3{fill:#2F4358;}
</style>
<title>7</title>
<circle class="st0" cx="150" cy="150" r="150"/>
<path class="st1" d="M117.6,81.5h64.7c11.1,0,20.1,9,20.1,20.2v96.6c0,11.2-9,20.2-20.1,20.2h-64.7c-11.1,0-20.1-9-20.1-20.2v-96.6
	C97.5,90.5,106.5,81.5,117.6,81.5z"/>
<path class="st2" d="M150,83.4c-11.5,0-20.9,10-20.9,22h41.8C170.9,93.5,161.5,83.4,150,83.4z M150,89.9c-1.5,0.1-2.7-1.1-2.8-2.5
	c-0.1-1.5,1.1-2.7,2.5-2.8c1.5-0.1,2.7,1.1,2.8,2.5c0,0,0,0.1,0,0.1C152.5,88.7,151.4,89.9,150,89.9C150,89.9,150,89.9,150,89.9
	L150,89.9z"/>
<rect x="115.7" y="118" class="st3" width="68.5" height="5.1"/>
<rect x="115.7" y="129.8" class="st3" width="68.5" height="5.1"/>
<rect x="115.7" y="141.5" class="st3" width="68.5" height="5.1"/>
<rect x="115.7" y="153.3" class="st3" width="68.5" height="5.1"/>
<path class="st2" d="M180.9,96.5h-61.9c-9,0-16.1,7.6-16.1,17v65.8h5.4l24.1,0c1.9,0.3,2.7,0.8,3.4,3.5v25.7v5.7h45.3
	c9,0,16.3-7.7,16.3-17.1v-83.6C197.2,104.1,189.8,96.5,180.9,96.5z M191.7,197.1c0,6.3-4.9,11.4-10.9,11.4h-39.8l0-26.5
	c-1.1-4.4-2.8-7.7-8.4-8.4h-24.4v-60c0-6.3,4.7-11.3,10.6-11.3h61.9c6,0,10.9,5.1,10.9,11.3V197.1z"/>
<path class="st2" d="M131.1,199.4c0,0,4.2-19.2-14-15.9c0,0-4.3,0.7-14.4-4.1c-0.8-0.4,19.5,26,33,35
	C135.8,214.3,130.8,209.1,131.1,199.4z"/>
</svg>
