<?xml version="1.0" encoding="utf-8"?>
<!-- Generator: Adobe Illustrator 21.0.0, SVG Export Plug-In . SVG Version: 6.00 Build 0)  -->
<svg version="1.1" id="Layer_1" xmlns="http://www.w3.org/2000/svg" xmlns:xlink="http://www.w3.org/1999/xlink" x="0px" y="0px"
	 viewBox="0 0 300 300" style="enable-background:new 0 0 300 300;" xml:space="preserve" >
<style type="text/css">
	.st0{fill:#FFC501;}
	.st1{fill:#FFFFFF;}
	.st2{fill:#C92D2D;}
	.st3{fill:#19334B;}
	.st4{fill:#FDFEFE;}
	.st5{fill:#22A69A;}
</style>
<title>8</title>
<circle class="st0" cx="150" cy="150" r="150"/>
<path class="st1" d="M212.9,150c0,34.8-28.2,63-62.9,63S87,184.8,87,150s28.2-63,62.9-63S212.9,115.2,212.9,150L212.9,150z"/>
<path class="st2" d="M150,87c34.8,0,62.9,28.2,62.9,63s-28.2,63-62.9,63S87,184.8,87,150S115.2,87,150,87 M150,81.5
	c-4.6,0-9.3,0.5-13.8,1.4c-8.8,1.8-17.1,5.3-24.5,10.3c-11,7.4-19.6,17.9-24.8,30.1c-1.8,4.1-3.1,8.5-4,12.9
	c-1.9,9.1-1.9,18.5,0,27.6c1.8,8.8,5.3,17.1,10.3,24.5c7.4,11,17.9,19.6,30.1,24.8c4.1,1.8,8.5,3.1,12.9,4c9.1,1.9,18.5,1.9,27.6,0
	c4.4-0.9,8.7-2.2,12.9-4c8.1-3.4,15.5-8.4,21.8-14.7c3.1-3.1,5.9-6.5,8.4-10.1c15.6-23.1,15.6-53.5,0-76.6
	c-4.9-7.3-11.2-13.6-18.5-18.5C177,85.6,163.6,81.5,150,81.5L150,81.5z"/>
<rect x="157.4" y="149.2" transform="matrix(0.866 -0.5001 0.5001 0.866 -62.2879 101.8287)" class="st3" width="2.8" height="35.8"/>
<path class="st3" d="M150.1,146.4L150.1,146.4L150.1,146.4l-20.9-21.7c-1.1-1.4-3.1-1.6-4.5-0.4s-1.6,3.1-0.4,4.5
	c0.1,0.1,0.2,0.2,0.3,0.3l21,21.7c0,0.1,0.1,0.1,0.2,0.1c1.3,1.2,3.3,1,4.5-0.3C151.2,149.5,151.2,147.6,150.1,146.4L150.1,146.4z"
	/>
<path class="st3" d="M181.4,143.5L181.4,143.5l-27.2,3.4c-0.9,0-1.7,0.5-2.2,1.2c-1,1.3-0.7,3.1,0.6,4c0,0,0,0,0,0
	c0.6,0.5,1.5,0.7,2.3,0.5l27.3-3.4c0.1,0,0.1,0,0.2-0.1c0.7-0.1,1.3-0.5,1.8-1.1c0.9-1.3,0.7-3.1-0.6-4
	C182.9,143.7,182.1,143.5,181.4,143.5z"/>
<circle class="st4" cx="151" cy="150.9" r="3.6"/>
<path class="st3" d="M151,105.4L151,105.4c-0.9,0-1.6-0.7-1.6-1.6v-9.5c0-0.9,0.7-1.6,1.6-1.6l0,0c0.9,0,1.6,0.7,1.6,1.6v9.5
	C152.6,104.6,151.9,105.4,151,105.4z"/>
<path class="st3" d="M182.5,119.2L182.5,119.2c-0.6-0.6-0.6-1.6,0-2.3l6.7-6.7c0.6-0.6,1.6-0.6,2.3,0l0,0c0.6,0.6,0.6,1.6,0,2.3
	l-6.7,6.7C184.2,119.8,183.2,119.8,182.5,119.2z"/>
<path class="st3" d="M194.9,150.9L194.9,150.9c0-0.9,0.7-1.6,1.6-1.6h9.5c0.9,0,1.6,0.7,1.6,1.6l0,0c0,0.9-0.7,1.6-1.6,1.6h-9.5
	C195.6,152.5,194.9,151.8,194.9,150.9z"/>
<path class="st3" d="M181.8,181.4L181.8,181.4c0.6-0.6,1.6-0.6,2.3,0l6.7,6.7c0.6,0.6,0.6,1.6,0,2.3l0,0c-0.6,0.6-1.6,0.6-2.3,0
	l-6.7-6.7C181.2,183,181.2,182,181.8,181.4C181.8,181.4,181.8,181.4,181.8,181.4z"/>
<path class="st3" d="M151.1,194.8L151.1,194.8c0.9,0,1.6,0.7,1.6,1.6v9.5c0,0.9-0.7,1.6-1.6,1.6l0,0c-0.9,0-1.6-0.7-1.6-1.6v-9.5
	C149.5,195.5,150.2,194.8,151.1,194.8z"/>
<path class="st3" d="M119.5,182.6L119.5,182.6c0.6,0.6,0.6,1.6,0,2.3l-6.7,6.8c-0.6,0.6-1.6,0.6-2.3,0l0,0c-0.6-0.6-0.6-1.6,0-2.3
	l6.7-6.8C117.8,182,118.8,182,119.5,182.6z"/>
<path class="st3" d="M105.7,151.1L105.7,151.1c0,0.9-0.7,1.6-1.6,1.6l-9.5,0.1c-0.9,0-1.6-0.7-1.6-1.6l0,0c0-0.9,0.7-1.6,1.6-1.6
	h9.5C104.9,149.5,105.6,150.2,105.7,151.1z"/>
<path class="st3" d="M118.7,118.8L118.7,118.8c-0.6,0.6-1.6,0.6-2.3,0l-6.8-6.7c-0.6-0.6-0.6-1.6,0-2.3l0,0c0.6-0.6,1.6-0.6,2.3,0
	l6.8,6.7C119.3,117.2,119.3,118.2,118.7,118.8z"/>
<path class="st5" d="M216.1,177.9c-5.9-5.9-15.5-5.8-21.4,0.1c-4,4-5.4,9.9-3.7,15.3l-17.1,17.1c-0.3,0.3-0.4,0.6-0.4,1v7.8
	c0,0.8,0.6,1.4,1.4,1.4c0,0,0,0,0,0h7.8c0.4,0,0.7-0.1,1-0.4l2-1.9c0.3-0.3,0.4-0.8,0.3-1.2l-0.2-2.1l2.9-0.3
	c0.7-0.1,1.2-0.6,1.2-1.2l0.3-2.9l2.1,0.2c0.8,0.1,1.4-0.5,1.5-1.2c0-0.1,0-0.1,0-0.2v-2.6h2.5c0.4,0,0.7-0.1,1-0.4l3.5-3.5
	c5.4,1.8,11.3,0.4,15.3-3.6C222,193.4,222,183.8,216.1,177.9z M212.2,187.6c-1.6,1.6-4.2,1.6-5.8,0c-1.6-1.6-1.6-4.2,0-5.8
	c1.6-1.6,4.2-1.6,5.8,0C213.8,183.4,213.8,186,212.2,187.6C212.2,187.6,212.2,187.6,212.2,187.6z"/>
</svg>
