<?xml version="1.0" encoding="utf-8"?>
<!-- Generator: Adobe Illustrator 21.0.0, SVG Export Plug-In . SVG Version: 6.00 Build 0)  -->
<svg version="1.1" id="Capa_1" xmlns="http://www.w3.org/2000/svg" xmlns:xlink="http://www.w3.org/1999/xlink" x="0px" y="0px"
	 viewBox="0 0 31 42" style="enable-background:new 0 0 31 42;" xml:space="preserve" width="51px" height="62px" fill="#ffe401">
<g>
	<g>
		<path d="M25.6,11.1c-2.2-3.5-6-5.6-10.1-5.6c-4.2,0-7.9,2.1-10.1,5.6C3.2,14.7,3,19,4.9,22.7c0,0,0,0.1,0.1,0.1l8.2,12.5
			c0.5,0.8,1.4,1.3,2.4,1.3c1,0,1.8-0.5,2.4-1.3L26,22.8c0,0,0-0.1,0.1-0.1C28,19,27.8,14.7,25.6,11.1z M15.5,23.3
			c-3.4,0-6.1-2.7-6.1-6.1s2.7-6.1,6.1-6.1s6.1,2.7,6.1,6.1C21.6,20.6,18.9,23.3,15.5,23.3z"/>
	</g>
</g>
<g>
	<g>
		<path d="M18.1,15.3c-0.4-0.4-0.9-0.4-1.3,0L15,17.1c0,0,0,0-0.1,0c0,0-0.1,0-0.1,0l-0.6-0.7c-0.3-0.4-0.9-0.4-1.3-0.1
			c-0.4,0.3-0.4,0.9-0.1,1.3l0.6,0.7c0.3,0.4,0.9,0.7,1.4,0.7c0,0,0.1,0,0.1,0c0.5,0,1-0.2,1.4-0.6l1.8-1.8
			C18.4,16.2,18.4,15.7,18.1,15.3z"/>
	</g>
</g>
</svg>
