<?xml version="1.0" encoding="utf-8"?>
<!-- Generator: Adobe Illustrator 21.0.0, SVG Export Plug-In . SVG Version: 6.00 Build 0)  -->
<svg version="1.1" id="Capa_1" xmlns="http://www.w3.org/2000/svg" xmlns:xlink="http://www.w3.org/1999/xlink" x="0px" y="0px"
	 viewBox="0 0 69 25" style="enable-background:new 0 0 69 25;" xml:space="preserve">
<g>
	<g>
		<path d="M23.7,21h4v3.4c0,0.2,0.1,0.3,0.2,0.4c0.1,0.1,0.2,0.2,0.4,0.2h3c0.2,0,0.3-0.1,0.4-0.2c0.1-0.1,0.2-0.2,0.2-0.4V21h9
			c0.2,0,0.3-0.1,0.4-0.2c0.1-0.1,0.2-0.2,0.2-0.4v-2.3c0-0.2-0.1-0.3-0.2-0.4c-0.1-0.1-0.2-0.2-0.4-0.2h-9v-2.1h6
			c2.4,0,4.3-0.7,5.8-2.2c1.5-1.4,2.2-3.3,2.2-5.6c0-2.3-0.7-4.1-2.2-5.6C42.1,0.7,40.2,0,37.8,0h-9.6c-0.2,0-0.3,0.1-0.4,0.2
			c-0.1,0.1-0.2,0.2-0.2,0.4v11.2h-4c-0.2,0-0.3,0.1-0.4,0.2c-0.1,0.1-0.2,0.2-0.2,0.4v2.6c0,0.2,0.1,0.3,0.2,0.4
			c0.1,0.1,0.2,0.2,0.4,0.2h4v2.1h-4c-0.2,0-0.3,0.1-0.4,0.2c-0.1,0.1-0.2,0.2-0.2,0.4v2.3c0,0.2,0.1,0.3,0.2,0.4
			C23.4,21,23.5,21,23.7,21z M31.8,3.8h5.7c1.3,0,2.3,0.4,3,1.1c0.8,0.7,1.2,1.7,1.2,2.9c0,1.2-0.4,2.1-1.2,2.9
			c-0.8,0.7-1.8,1.1-3,1.1h-5.7V3.8z"/>
	</g>
</g>
<g>
	<g>
		<g>
			<path d="M-341.4-200.5h4v3.4c0,0.2,0.1,0.3,0.2,0.4c0.1,0.1,0.2,0.2,0.4,0.2h3c0.2,0,0.3-0.1,0.4-0.2c0.1-0.1,0.2-0.2,0.2-0.4
				v-3.4h9c0.2,0,0.3-0.1,0.4-0.2c0.1-0.1,0.2-0.2,0.2-0.4v-2.3c0-0.2-0.1-0.3-0.2-0.4c-0.1-0.1-0.2-0.2-0.4-0.2h-9v-2.1h6
				c2.4,0,4.3-0.7,5.8-2.2c1.5-1.4,2.2-3.3,2.2-5.6c0-2.3-0.7-4.1-2.2-5.6c-1.6-1.3-3.5-2-5.9-2h-9.6c-0.2,0-0.3,0.1-0.4,0.2
				c-0.1,0.1-0.2,0.2-0.2,0.4v11.2h-4c-0.2,0-0.3,0.1-0.4,0.2s-0.2,0.2-0.2,0.4v2.6c0,0.2,0.1,0.3,0.2,0.4c0.1,0.1,0.2,0.2,0.4,0.2
				h4v2.1h-4c-0.2,0-0.3,0.1-0.4,0.2c-0.1,0.1-0.2,0.2-0.2,0.4v2.3c0,0.2,0.1,0.3,0.2,0.4C-341.7-200.5-341.6-200.5-341.4-200.5z
				 M-333.3-217.7h5.7c1.3,0,2.3,0.4,3,1.1c0.8,0.7,1.2,1.7,1.2,2.9s-0.4,2.1-1.2,2.9c-0.8,0.7-1.8,1.1-3,1.1h-5.7V-217.7z"/>
		</g>
	</g>
</g>
</svg>
