<?xml version="1.0" encoding="utf-8"?>
<!-- Generator: Adobe Illustrator 21.0.0, SVG Export Plug-In . SVG Version: 6.00 Build 0)  -->
<svg version="1.1" id="Capa_1" xmlns="http://www.w3.org/2000/svg" xmlns:xlink="http://www.w3.org/1999/xlink" x="0px" y="0px"
	 viewBox="0 0 14 14" style="enable-background:new 0 0 14 14;" xml:space="preserve" width="14px" height="14px">
<g>
	<g>
		<g>
			<path d="M13.7,11.1l-2.2-2.2c-0.4-0.4-1.1-0.4-1.6,0L8.8,10c-0.1,0-0.1-0.1-0.2-0.1C7.9,9.5,7,9,6,8C5,7,4.5,6.1,4.1,5.4
				C4.1,5.3,4,5.2,4,5.2l0.7-0.7l0.4-0.4c0.4-0.4,0.5-1.2,0-1.6L3,0.3c-0.4-0.4-1.1-0.4-1.6,0L0.8,1l0,0C0.6,1.2,0.4,1.6,0.3,1.9
				C0.2,2.2,0.1,2.5,0,2.8c-0.3,2.4,0.8,4.5,3.7,7.5c4.1,4.1,7.3,3.8,7.5,3.7c0.3,0,0.6-0.1,0.9-0.2c0.3-0.1,0.6-0.3,0.9-0.5l0,0
				l0.6-0.6C14.1,12.2,14.1,11.5,13.7,11.1z" style="fill:#939393"/>
		</g>
	</g>
</g>
</svg>
