<?xml version="1.0" encoding="utf-8"?>
<!-- Generator: Adobe Illustrator 21.0.0, SVG Export Plug-In . SVG Version: 6.00 Build 0)  -->
<svg version="1.1" id="Capa_1" xmlns="http://www.w3.org/2000/svg" xmlns:xlink="http://www.w3.org/1999/xlink" x="0px" y="0px"
	 viewBox="0 0 16 16" style="enable-background:new 0 0 16 16;" xml:space="preserve" width="16px" height="16px">
<g>
	<g style="fill:#939393">
		<path d="M14.9,4c-0.7-1.2-1.7-2.2-2.9-2.9C10.8,0.4,9.5,0,8,0C6.5,0,5.2,0.4,4,1.1C2.8,1.8,1.8,2.8,1.1,4C0.4,5.2,0,6.5,0,8
			c0,1.5,0.4,2.8,1.1,4c0.7,1.2,1.7,2.2,2.9,2.9C5.2,15.6,6.5,16,8,16s2.8-0.4,4-1.1c1.2-0.7,2.2-1.7,2.9-2.9c0.7-1.2,1.1-2.6,1.1-4
			C16,6.5,15.6,5.2,14.9,4z M12.9,10.8c-0.5,0.9-1.2,1.6-2.1,2.1C10,13.4,9,13.7,8,13.7c-1,0-2-0.3-2.8-0.8
			c-0.9-0.5-1.6-1.2-2.1-2.1C2.6,10,2.3,9,2.3,8c0-1,0.3-2,0.8-2.8c0.5-0.9,1.2-1.6,2.1-2.1C6,2.6,7,2.3,8,2.3c1,0,2,0.3,2.8,0.8
			c0.9,0.5,1.6,1.2,2.1,2.1C13.4,6,13.7,7,13.7,8C13.7,9,13.4,10,12.9,10.8z" style="fill:#939393"/>
		<path d="M9,4H8.3C8.2,4,8.2,4,8.1,4.1C8,4.2,8,4.2,8,4.3V8H5.7C5.6,8,5.5,8,5.4,8.1C5.4,8.2,5.3,8.2,5.3,8.3V9
			c0,0.1,0,0.2,0.1,0.2c0.1,0.1,0.1,0.1,0.2,0.1H9c0.1,0,0.2,0,0.2-0.1C9.3,9.2,9.3,9.1,9.3,9V4.3c0-0.1,0-0.2-0.1-0.2
			C9.2,4,9.1,4,9,4z"/>
	</g>
</g>
</svg>
