<svg xmlns="http://www.w3.org/2000/svg" viewBox="0 0 14 13"><g><g><path fill="#939393" d="M1.17 2.46h11.66c.646 0 1.17-.52 1.17-1.162 0-.642-.524-1.162-1.17-1.162H1.17C.524.136 0 .656 0 1.298c0 .643.524 1.163 1.17 1.163zm11.66 2.877H1.17c-.646 0-1.17.52-1.17 1.162 0 .642.524 1.163 1.17 1.163h11.66c.646 0 1.17-.52 1.17-1.163 0-.642-.524-1.162-1.17-1.162zm0 5.202H1.17c-.646 0-1.17.52-1.17 1.162 0 .642.524 1.163 1.17 1.163h11.66c.646 0 1.17-.52 1.17-1.163 0-.642-.524-1.162-1.17-1.162z"/></g></g></svg>
