<svg xmlns="http://www.w3.org/2000/svg" width="30" height="30" viewBox="0 0 30 30"><g><g><path fill="#4958a5" d="M11.996 14.993c0-.653.213-1.257.568-1.75a3.003 3.003 0 0 1 2.435-1.252 3 3 0 0 1 2.434 1.253c.355.492.568 1.096.568 1.749a3.007 3.007 0 0 1-3.003 3.002 3.005 3.005 0 0 1-3.002-3.002zm6.676-3.662l-.01-2.892 2.515-.009h.377v2.892zm11.323 3.662c0 8.268-6.728 14.997-14.996 14.997C6.73 29.99.003 23.26.003 14.993.003 6.724 6.73-.003 14.999-.003c8.268 0 14.996 6.727 14.996 14.996zm-6.468-5.23a3.3 3.3 0 0 0-3.297-3.297H9.766A3.3 3.3 0 0 0 6.47 9.762v10.465a3.3 3.3 0 0 0 3.296 3.296h10.465a3.3 3.3 0 0 0 3.296-3.296zm-4.21 3.481h2.547v6.983c0 .901-.732 1.632-1.634 1.632H9.766a1.634 1.634 0 0 1-1.635-1.632v-6.983h2.546c-.22.54-.343 1.13-.343 1.749A4.67 4.67 0 0 0 15 19.658a4.67 4.67 0 0 0 4.664-4.665c0-.62-.125-1.21-.345-1.749z"/></g></g></svg>