<svg xmlns="http://www.w3.org/2000/svg" width="30" height="30" viewBox="0 0 30 30"><g><g><path fill="#4a76a8" d="M29.999 14.995c0 8.283-6.716 14.998-15 14.998C6.717 29.993 0 23.278 0 14.995c0-8.284 6.716-15 15-15 8.283 0 14.999 6.716 14.999 15zm-7.554-.06c.553-.775 1.148-1.52 1.707-2.293.521-.72 1.054-1.44 1.329-2.304.174-.55.02-.792-.544-.888-.097-.018-.197-.018-.296-.018l-3.343-.004c-.412-.007-.639.172-.785.538-.196.494-.399.986-.633 1.462-.531 1.08-1.125 2.122-1.957 3.006-.184.195-.386.44-.693.339-.383-.14-.496-.772-.49-.985l-.003-3.859c-.074-.55-.197-.796-.744-.903H12.52c-.464 0-.696.18-.943.469-.143.167-.186.277.107.332.576.11.901.481.987 1.06.138.923.129 1.85.05 2.777-.024.27-.07.54-.178.793-.168.398-.44.48-.795.234-.323-.22-.55-.533-.771-.847-.833-1.175-1.497-2.445-2.039-3.779-.157-.384-.427-.618-.835-.624a85.214 85.214 0 0 0-3.009 0c-.604.013-.783.304-.538.852 1.093 2.43 2.308 4.792 3.896 6.944.814 1.104 1.75 2.079 2.958 2.77 1.37.782 2.845 1.018 4.398.946.727-.035.946-.223.979-.948.023-.496.08-.99.324-1.436.24-.436.604-.52 1.023-.247.21.135.386.309.553.492.41.447.803.91 1.228 1.342.533.541 1.165.862 1.958.797h3.073c.495-.032.752-.638.467-1.191-.2-.388-.461-.732-.74-1.066-.627-.754-1.367-1.396-2.066-2.08-.63-.614-.671-.972-.163-1.682z"/></g></g></svg>