<svg id="Layer_1" data-name="Layer 1" xmlns="http://www.w3.org/2000/svg" viewBox="0 0 673.49 390.03"><defs><style>.cls-1,.cls-2{fill:#fff;}.cls-1{fill-rule:evenodd;}</style></defs><title>logo_white</title><path class="cls-1" d="M397.34,107.92,409.08,163l-19.39,52.48-14.18-4.13Z" transform="translate(-5.25 -3)"/><path class="cls-1" d="M397.38,112.16l11,51.54L389,214.76,376.23,212Z" transform="translate(-5.25 -3)"/><path class="cls-1" d="M466,137l-47,31-23,51,13,7Z" transform="translate(-5.25 -3)"/><path class="cls-1" d="M463,140l-44,29-22,50,11,7Z" transform="translate(-5.25 -3)"/><path class="cls-1" d="M548.94,217.66,518.31,264.9l-50.82,23.39-7.1-13Z" transform="translate(-5.25 -3)"/><path class="cls-1" d="M546,220.68,517.31,264.9l-49.83,22.39-7.09-11Z" transform="translate(-5.25 -3)"/><path class="cls-1" d="M576.93,286.77l-55.16-11.31-52.32,19.79,4.24,14.15Z" transform="translate(-5.25 -3)"/><path class="cls-1" d="M572.68,286.77l-51.61-10.61L470.15,296,473,308.69Z" transform="translate(-5.25 -3)"/><path class="cls-1" d="M134.06,217.66l30.63,47.24,50.82,23.39,7.1-13Z" transform="translate(-5.25 -3)"/><path class="cls-1" d="M137,220.68l28.66,44.22,49.83,22.39,7.09-11Z" transform="translate(-5.25 -3)"/><path class="cls-1" d="M106.07,286.77l55.16-11.31,52.32,19.79-4.24,14.15Z" transform="translate(-5.25 -3)"/><path class="cls-1" d="M110.32,286.77l51.61-10.61L212.85,296,210,308.69Z" transform="translate(-5.25 -3)"/><path class="cls-1" d="M285.66,107.92,273.92,163l19.39,52.48,14.18-4.13Z" transform="translate(-5.25 -3)"/><path class="cls-1" d="M285.62,112.16l-11,51.54L294,214.76,306.77,212Z" transform="translate(-5.25 -3)"/><path class="cls-1" d="M217,137l47,31,23,51-13,7Z" transform="translate(-5.25 -3)"/><path class="cls-1" d="M220,140l44,29,22,50-11,7Z" transform="translate(-5.25 -3)"/><path class="cls-2" d="M69.33,382a13.46,13.46,0,0,1,.54,1.35A2,2,0,0,1,70,384a1,1,0,0,1-.39.83,3.75,3.75,0,0,1-2,.4H67.1v.66H78.9v-.66a2.86,2.86,0,0,1-1.73-.65A12,12,0,0,1,75.11,381l-8.8-20H66l-8.72,19.45a14.82,14.82,0,0,1-2.08,3.68A3.73,3.73,0,0,1,53,385.25v.66h8.11v-.66a6.76,6.76,0,0,1-2.39-.44,1.6,1.6,0,0,1-.83-1.51,5.4,5.4,0,0,1,.5-2l1-2.37H68Zm-9.27-4.37,3.74-8.4,3.63,8.4Z" transform="translate(-5.25 -3)"/><path class="cls-2" d="M80.05,362.19h.77c1.13,0,1.85.24,2.17.7a4.26,4.26,0,0,1,.48,2.34v16.83a4,4,0,0,1-.58,2.58,3,3,0,0,1-2.16.61h-.68v.66H92.76v-.66h-.63a3.23,3.23,0,0,1-2.2-.57,3.84,3.84,0,0,1-.6-2.62V363.11h5a16.47,16.47,0,0,1,3.85.29,3,3,0,0,1,1.64,1.29,9.72,9.72,0,0,1,1.11,3.46h.66v-6.62H80.05Z" transform="translate(-5.25 -3)"/><path class="cls-2" d="M115.29,362.93a14.2,14.2,0,0,1,3.78.33,5.36,5.36,0,0,1,2.67,1.69,8.65,8.65,0,0,1,1.46,3.79h.69v-7.21H103.48v.66h.81a3.07,3.07,0,0,1,1.87.51,1.74,1.74,0,0,1,.66,1,12.75,12.75,0,0,1,.09,2v16a7,7,0,0,1-.2,2.26,1.61,1.61,0,0,1-.71.87,3.44,3.44,0,0,1-1.71.38h-.81v.66h21.07l1.1-7.75H125a7.84,7.84,0,0,1-8.43,6.4h-1.46a2.94,2.94,0,0,1-1.51-.29,1.43,1.43,0,0,1-.63-.73,9.44,9.44,0,0,1-.18-2.47v-6.86a6.27,6.27,0,0,1,2.67.45,4,4,0,0,1,1.6,1.79,9.35,9.35,0,0,1,.91,3.42h.69V367.1H118a8.88,8.88,0,0,1-1.33,4.3,3.84,3.84,0,0,1-3.36,1.46h-.49v-9.93Z" transform="translate(-5.25 -3)"/><path class="cls-2" d="M146,374.19v7.55a7.51,7.51,0,0,1-.19,2.26,1.75,1.75,0,0,1-.74.87,3.33,3.33,0,0,1-1.71.38h-.79v.66h12.73v-.66h-.79a3.24,3.24,0,0,1-1.64-.36,1.8,1.8,0,0,1-.81-.81,8.25,8.25,0,0,1-.19-2.34v-16a7.51,7.51,0,0,1,.19-2.26,1.75,1.75,0,0,1,.74-.87,3.33,3.33,0,0,1,1.71-.38h.79v-.66H142.55v.66h.79a3.24,3.24,0,0,1,1.64.36,1.85,1.85,0,0,1,.81.81,8.25,8.25,0,0,1,.19,2.34v6.91h-8.61V365.7a7.37,7.37,0,0,1,.2-2.26,1.7,1.7,0,0,1,.74-.87,3.37,3.37,0,0,1,1.7-.38h.81v-.66H128.08v.66h.8a3.15,3.15,0,0,1,1.63.36,1.77,1.77,0,0,1,.8.81,8.1,8.1,0,0,1,.2,2.34v16a7.37,7.37,0,0,1-.2,2.26,1.67,1.67,0,0,1-.72.87,3.38,3.38,0,0,1-1.71.38h-.8v.66h12.74v-.66H140a3.14,3.14,0,0,1-1.62-.36,1.85,1.85,0,0,1-.81-.81,7.61,7.61,0,0,1-.21-2.34v-7.55Z" transform="translate(-5.25 -3)"/><path class="cls-2" d="M157.28,361.53v6.6H158a6.87,6.87,0,0,1,2-4.16,5.13,5.13,0,0,1,3.57-1h1.77v18.81a7.37,7.37,0,0,1-.2,2.26,1.75,1.75,0,0,1-.74.87,3.38,3.38,0,0,1-1.71.38h-.81v.66h12.77v-.66h-.81a3.19,3.19,0,0,1-1.64-.36,1.75,1.75,0,0,1-.81-.81,7.61,7.61,0,0,1-.21-2.34V362.93h1.82a6.05,6.05,0,0,1,2.39.33,4.87,4.87,0,0,1,1.92,1.59,10.46,10.46,0,0,1,1.28,3.28h.65v-6.6Z" transform="translate(-5.25 -3)"/><path class="cls-2" d="M204.38,361a2.28,2.28,0,0,1-.54,1.34,1.39,1.39,0,0,1-1,.42,8.37,8.37,0,0,1-2.11-.64A14.78,14.78,0,0,0,195.3,361a13.38,13.38,0,0,0-6.59,1.73A13.33,13.33,0,0,0,182,374.17a12.53,12.53,0,0,0,1.65,6.24,11,11,0,0,0,4.67,4.49,14.81,14.81,0,0,0,6.93,1.57,13,13,0,0,0,5.19-1,13.36,13.36,0,0,0,4.27-3.11v-2.1a14.61,14.61,0,0,1-4,3.47,9,9,0,0,1-4.22,1,7.21,7.21,0,0,1-4.57-1.38,7.92,7.92,0,0,1-2.59-4.06,20.26,20.26,0,0,1-.82-6,15.44,15.44,0,0,1,1.13-6,7.63,7.63,0,0,1,2.79-3.44,7.24,7.24,0,0,1,4.18-1.31,7.56,7.56,0,0,1,4.9,1.76,9,9,0,0,1,2.94,5.07h.71V361Z" transform="translate(-5.25 -3)"/><path class="cls-2" d="M208.43,361.53v6.6h.68a7,7,0,0,1,2-4.16,5.16,5.16,0,0,1,3.58-1h1.76v18.81a7.37,7.37,0,0,1-.2,2.26,1.73,1.73,0,0,1-.73.87,3.44,3.44,0,0,1-1.71.38H213v.66h12.76v-.66h-.8a3.21,3.21,0,0,1-1.65-.36,1.85,1.85,0,0,1-.81-.81,7.61,7.61,0,0,1-.21-2.34V362.93h1.82a6,6,0,0,1,2.39.33,4.83,4.83,0,0,1,1.93,1.59,10.49,10.49,0,0,1,1.27,3.28h.65v-6.6Z" transform="translate(-5.25 -3)"/><path class="cls-2" d="M252.54,370.8a4.48,4.48,0,0,0,1.27-3.14,5.55,5.55,0,0,0-1-3.16,6.2,6.2,0,0,0-2.76-2.22,16.49,16.49,0,0,0-5.93-.75H232.43v.66a5.83,5.83,0,0,1,2.29.31,1.79,1.79,0,0,1,.85.82,7.61,7.61,0,0,1,.24,2.49v15.82a7.49,7.49,0,0,1-.24,2.48,1.81,1.81,0,0,1-.84.82,5.63,5.63,0,0,1-2.3.32v.66h12.39c3.45,0,6.09-.72,7.9-2.18a5.61,5.61,0,0,0,2.21-4.54,5.21,5.21,0,0,0-2-4.25,12.54,12.54,0,0,0-4.87-2A9.19,9.19,0,0,0,252.54,370.8Zm-11-7.9a9.54,9.54,0,0,1,3.81.52,4,4,0,0,1,1.82,1.57,5.79,5.79,0,0,1,0,5.31,4.22,4.22,0,0,1-1.86,1.62,9.12,9.12,0,0,1-3.76.58Zm4.13,11.52a4.28,4.28,0,0,1,2.18,1.9,6,6,0,0,1,.79,3.06,5.68,5.68,0,0,1-.65,2.71,4.32,4.32,0,0,1-1.86,1.85,5.55,5.55,0,0,1-2.65.64,1.73,1.73,0,0,1-2-2l0-.9V373.9A11.82,11.82,0,0,1,245.63,374.42Z" transform="translate(-5.25 -3)"/><path class="cls-2" d="M261.35,364.59a12.19,12.19,0,0,0-3.69,9.06A12.94,12.94,0,0,0,260.5,382q3.6,4.46,10.18,4.46t10.16-4.68a13,13,0,0,0,2.71-8.16,12.1,12.1,0,0,0-13.11-12.44A11.77,11.77,0,0,0,261.35,364.59Zm12.52-1.26a7,7,0,0,1,2.29,3.39,21.84,21.84,0,0,1,.9,7.23,20.34,20.34,0,0,1-.88,6.59,7.42,7.42,0,0,1-2.46,3.68,5.15,5.15,0,0,1-3.1.9,5,5,0,0,1-4.28-2.09q-2.19-3-2.19-9.22,0-5.25,1.42-8.06a5.5,5.5,0,0,1,5.09-3.41A5.41,5.41,0,0,1,273.87,363.33Z" transform="translate(-5.25 -3)"/><path class="cls-2" d="M312.75,374.19v7.55a7,7,0,0,1-.2,2.26,1.73,1.73,0,0,1-.73.87,3.33,3.33,0,0,1-1.71.38h-.79v.66h12.73v-.66h-.79a3.22,3.22,0,0,1-1.64-.36,1.75,1.75,0,0,1-.81-.81,8.1,8.1,0,0,1-.2-2.34v-16a7.37,7.37,0,0,1,.2-2.26,1.75,1.75,0,0,1,.74-.87,3.33,3.33,0,0,1,1.71-.38h.79v-.66H309.32v.66h.79a3.18,3.18,0,0,1,1.63.36,1.75,1.75,0,0,1,.81.81,7.74,7.74,0,0,1,.2,2.34v6.91h-8.61V365.7a7,7,0,0,1,.2-2.26,1.73,1.73,0,0,1,.73-.87,3.41,3.41,0,0,1,1.71-.38h.81v-.66H294.84v.66h.81a3.15,3.15,0,0,1,1.63.36,1.77,1.77,0,0,1,.8.81,8.1,8.1,0,0,1,.2,2.34v16a7.37,7.37,0,0,1-.2,2.26,1.67,1.67,0,0,1-.72.87,3.38,3.38,0,0,1-1.71.38h-.81v.66h12.75v-.66h-.81a3.2,3.2,0,0,1-1.63-.36,1.77,1.77,0,0,1-.8-.81,7.61,7.61,0,0,1-.21-2.34v-7.55Z" transform="translate(-5.25 -3)"/><path class="cls-2" d="M335.26,362.93a14.2,14.2,0,0,1,3.78.33,5.36,5.36,0,0,1,2.67,1.69,8.65,8.65,0,0,1,1.46,3.79h.69v-7.21H323.45v.66h.81a3.07,3.07,0,0,1,1.87.51,1.74,1.74,0,0,1,.66,1,12.75,12.75,0,0,1,.09,2v16a7.51,7.51,0,0,1-.19,2.26,1.67,1.67,0,0,1-.72.87,3.38,3.38,0,0,1-1.71.38h-.81v.66h21.07l1.1-7.75H345a7.84,7.84,0,0,1-8.43,6.4h-1.45a3,3,0,0,1-1.52-.29,1.43,1.43,0,0,1-.63-.73,9.64,9.64,0,0,1-.17-2.47v-6.86a6.22,6.22,0,0,1,2.66.45,4,4,0,0,1,1.61,1.79,9.56,9.56,0,0,1,.9,3.42h.69V367.1h-.69a8.88,8.88,0,0,1-1.33,4.3,3.84,3.84,0,0,1-3.36,1.46h-.48v-9.93Z" transform="translate(-5.25 -3)"/><path class="cls-2" d="M351.77,362.19a5.08,5.08,0,0,1,3.06.66,3.69,3.69,0,0,1,.71,2.71q0,8.56-1.91,13.69t-6.36,6V393h.67a7.49,7.49,0,0,1,2.63-5.28,9.3,9.3,0,0,1,6-1.84h6.63a8,8,0,0,1,5.72,2,7.49,7.49,0,0,1,2.3,5.14h.66v-7.78a5.13,5.13,0,0,1-2.2-.39,1.9,1.9,0,0,1-1-1,6.67,6.67,0,0,1-.24-2.16V365.41a3.7,3.7,0,0,1,.62-2.55,4.66,4.66,0,0,1,2.85-.67v-.66H351.77Zm11.47,20.32c0,.89-.1,1.41-.31,1.58a4.89,4.89,0,0,1-2.08.24h-8.69a12.19,12.19,0,0,0,2.74-4,26.93,26.93,0,0,0,1.62-6.55,61.62,61.62,0,0,0,.59-8.56v-2.09h6.13Z" transform="translate(-5.25 -3)"/><path class="cls-2" d="M393.48,370.8a4.49,4.49,0,0,0,1.28-3.14,5.56,5.56,0,0,0-1-3.16,6.17,6.17,0,0,0-2.75-2.22,16.49,16.49,0,0,0-5.93-.75H373.38v.66a5.74,5.74,0,0,1,2.28.31,1.77,1.77,0,0,1,.86.82,7.61,7.61,0,0,1,.24,2.49v15.82a7.49,7.49,0,0,1-.24,2.48,1.79,1.79,0,0,1-.85.82,5.54,5.54,0,0,1-2.29.32v.66h12.39c3.45,0,6.08-.72,7.89-2.18a5.58,5.58,0,0,0,2.21-4.54,5.23,5.23,0,0,0-2-4.25,12.54,12.54,0,0,0-4.87-2A9.15,9.15,0,0,0,393.48,370.8Zm-11-7.9a9.62,9.62,0,0,1,3.82.52,4.06,4.06,0,0,1,1.82,1.57,5.79,5.79,0,0,1,0,5.31,4.22,4.22,0,0,1-1.86,1.62,9.14,9.14,0,0,1-3.77.58Zm4.14,11.52a4.22,4.22,0,0,1,2.17,1.9,5.92,5.92,0,0,1,.8,3.06,5.68,5.68,0,0,1-.65,2.71,4.32,4.32,0,0,1-1.86,1.85,5.58,5.58,0,0,1-2.65.64,1.73,1.73,0,0,1-2-2V373.9A11.85,11.85,0,0,1,386.58,374.42Z" transform="translate(-5.25 -3)"/><path class="cls-2" d="M407.2,379V365.68a4.84,4.84,0,0,1,.56-2.78,2.73,2.73,0,0,1,2.21-.71h.85v-.66H397.74v.66h.81c1.29,0,2.07.22,2.36.65a5.93,5.93,0,0,1,.43,2.84v16a5,5,0,0,1-.54,2.85,2.83,2.83,0,0,1-2.25.68h-.81v.66h13.08v-.66H410c-1.27,0-2.05-.26-2.34-.77a5.48,5.48,0,0,1-.43-2.51l8.6-13.48v13.23a5.13,5.13,0,0,1-.53,2.85,2.8,2.8,0,0,1-2.24.68h-.81v.66h13.07v-.66h-.84a3,3,0,0,1-2.23-.64,4.82,4.82,0,0,1-.56-2.89v-16a4.81,4.81,0,0,1,.55-2.84,2.9,2.9,0,0,1,2.24-.65h.84v-.66H412.22v.66H413c1.22,0,2,.24,2.29.7a5.43,5.43,0,0,1,.48,2.67Z" transform="translate(-5.25 -3)"/><path class="cls-2" d="M437.79,361.53v.66a4.46,4.46,0,0,1,2.73.59,3.15,3.15,0,0,1,.68,2.42v7.42a5.37,5.37,0,0,1-3.12-.69c-.61-.46-1.17-1.67-1.68-3.62a21.35,21.35,0,0,0-1.35-4.08,5.61,5.61,0,0,0-1.8-2.18,4.94,4.94,0,0,0-2.92-.81,3.77,3.77,0,0,0-2.81,1,3.23,3.23,0,0,0-1,2.34,2.32,2.32,0,0,0,2.43,2.45c1.37,0,2.11-.79,2.23-2.36.06-.79.35-1.18.88-1.18a1.64,1.64,0,0,1,1.16.67,11,11,0,0,1,1.43,3.52c.47,1.63.85,2.83,1.15,3.61a3.28,3.28,0,0,0,1.46,1.74,6.24,6.24,0,0,0-2.68,1.52,23.43,23.43,0,0,0-2.66,4.31,51.43,51.43,0,0,1-3.19,5.58,3,3,0,0,1-2.35.79v.66H434l4.87-9.87a4.19,4.19,0,0,1,1-1.48,2.85,2.85,0,0,1,1.37-.26v8a4.46,4.46,0,0,1-.3,2,1.68,1.68,0,0,1-1,.74,7.76,7.76,0,0,1-2.11.22v.66h12.46v-.66a6,6,0,0,1-2.31-.28,2.89,2.89,0,0,1-.82-.64,4.23,4.23,0,0,1-.31-2.16V374.3a2.8,2.8,0,0,1,1.47.34,6,6,0,0,1,1.05,1.67l4.73,9.6h7.59v-.66a3.51,3.51,0,0,1-1.86-.42,6.06,6.06,0,0,1-1.6-2.12l-2.08-3.83c-1-1.94-1.73-3.14-2.05-3.6a5.5,5.5,0,0,0-1.21-1.25,7.36,7.36,0,0,0-2.08-1,3.24,3.24,0,0,0,1.47-1.75c.3-.78.69-2,1.15-3.6a10.61,10.61,0,0,1,1.42-3.52,1.62,1.62,0,0,1,1.15-.67c.54,0,.84.39.9,1.18.11,1.57.85,2.36,2.23,2.36a2.36,2.36,0,0,0,1.76-.68,2.41,2.41,0,0,0,.65-1.75,3.18,3.18,0,0,0-1-2.4,3.9,3.9,0,0,0-2.78-1,5,5,0,0,0-2.9.8,5.46,5.46,0,0,0-1.82,2.17,23.6,23.6,0,0,0-1.36,4.1,9.79,9.79,0,0,1-1.12,3,2.53,2.53,0,0,1-1.24,1.05,9.5,9.5,0,0,1-2.44.27V365.2a3.38,3.38,0,0,1,.62-2.4,4.59,4.59,0,0,1,2.82-.61v-.66Z" transform="translate(-5.25 -3)"/><path class="cls-2" d="M472.26,379V365.68a4.86,4.86,0,0,1,.55-2.78,2.73,2.73,0,0,1,2.21-.71h.85v-.66H462.8v.66h.81c1.28,0,2.06.22,2.35.65a5.93,5.93,0,0,1,.43,2.84v16a5,5,0,0,1-.54,2.85,2.8,2.8,0,0,1-2.24.68h-.81v.66h13.07v-.66H475c-1.27,0-2-.26-2.33-.77a5.35,5.35,0,0,1-.43-2.51l8.59-13.48v13.23a5.13,5.13,0,0,1-.53,2.85,2.79,2.79,0,0,1-2.24.68h-.81v.66h13.07v-.66h-.84a3,3,0,0,1-2.23-.64,4.9,4.9,0,0,1-.56-2.89v-16a4.81,4.81,0,0,1,.55-2.84,2.92,2.92,0,0,1,2.24-.65h.84v-.66H477.27v.66h.81c1.22,0,2,.24,2.29.7a5.31,5.31,0,0,1,.48,2.67Z" transform="translate(-5.25 -3)"/><path class="cls-2" d="M501.56,361.53h-10v.66h.78a3.2,3.2,0,0,1,1.63.36,1.78,1.78,0,0,1,.81.8,7.89,7.89,0,0,1,.2,2.31v15.43c0,1.09,0,1.7,0,1.84a3.4,3.4,0,0,1-.56,1.31,2.37,2.37,0,0,1-1.06.74,3.76,3.76,0,0,1-1.51.27h-.25v.66h8.34v-.66a4.2,4.2,0,0,1-2.45-.57,2.61,2.61,0,0,1-1-1.47,15.05,15.05,0,0,1-.09-2.21V363.83l9.5,22.08h.43l9.35-22.24v18.07a7.37,7.37,0,0,1-.2,2.26,1.77,1.77,0,0,1-.72.87,3.4,3.4,0,0,1-1.72.38h-.79v.66H525v-.66h-.8a3.2,3.2,0,0,1-1.63-.36,1.75,1.75,0,0,1-.81-.81,8.1,8.1,0,0,1-.2-2.34V365.66a7.25,7.25,0,0,1,.2-2.24,1.76,1.76,0,0,1,.72-.85,3.42,3.42,0,0,1,1.72-.38h.8v-.66H515l-6.62,16.07Z" transform="translate(-5.25 -3)"/><path class="cls-2" d="M530.75,364.59a12.19,12.19,0,0,0-3.69,9.06A12.94,12.94,0,0,0,529.9,382q3.6,4.46,10.18,4.46t10.16-4.68a13,13,0,0,0,2.71-8.16,12.1,12.1,0,0,0-13.11-12.44A11.77,11.77,0,0,0,530.75,364.59Zm12.52-1.26a7,7,0,0,1,2.29,3.39,21.84,21.84,0,0,1,.9,7.23,20.34,20.34,0,0,1-.88,6.59,7.42,7.42,0,0,1-2.46,3.68,5.15,5.15,0,0,1-3.1.9,5,5,0,0,1-4.28-2.09q-2.19-3-2.19-9.22,0-5.25,1.42-8.06a5.5,5.5,0,0,1,5.09-3.41A5.41,5.41,0,0,1,543.27,363.33Z" transform="translate(-5.25 -3)"/><path class="cls-2" d="M578.59,361a2.28,2.28,0,0,1-.55,1.34,1.36,1.36,0,0,1-1,.42,8.23,8.23,0,0,1-2.1-.64,14.86,14.86,0,0,0-5.43-1.12,13.38,13.38,0,0,0-6.59,1.73,13.27,13.27,0,0,0-6.75,11.47,12.62,12.62,0,0,0,1.64,6.24,11.08,11.08,0,0,0,4.68,4.49,14.81,14.81,0,0,0,6.93,1.57,13,13,0,0,0,5.19-1,13.47,13.47,0,0,0,4.27-3.11v-2.1a14.63,14.63,0,0,1-4,3.47,8.9,8.9,0,0,1-4.21,1,7.19,7.19,0,0,1-4.57-1.38,7.86,7.86,0,0,1-2.59-4.06,20.25,20.25,0,0,1-.83-6,15.44,15.44,0,0,1,1.14-6,7.61,7.61,0,0,1,2.78-3.44,7.27,7.27,0,0,1,4.19-1.31,7.55,7.55,0,0,1,4.89,1.76,9,9,0,0,1,3,5.07h.7V361Z" transform="translate(-5.25 -3)"/><path class="cls-2" d="M582.64,361.53v6.6h.68a6.92,6.92,0,0,1,2-4.16,5.14,5.14,0,0,1,3.58-1h1.76v18.81a7.37,7.37,0,0,1-.2,2.26,1.75,1.75,0,0,1-.74.87,3.38,3.38,0,0,1-1.71.38h-.8v.66H600v-.66h-.81a3.19,3.19,0,0,1-1.64-.36,1.85,1.85,0,0,1-.81-.81,7.61,7.61,0,0,1-.21-2.34V362.93h1.82a6.05,6.05,0,0,1,2.39.33,4.8,4.8,0,0,1,1.92,1.59,10.22,10.22,0,0,1,1.28,3.28h.65v-6.6Z" transform="translate(-5.25 -3)"/><path class="cls-2" d="M615.9,379V365.68a4.84,4.84,0,0,1,.56-2.78,2.73,2.73,0,0,1,2.21-.71h.84v-.66H606.44v.66h.81c1.28,0,2.07.22,2.36.65a6.06,6.06,0,0,1,.43,2.84v16a5,5,0,0,1-.54,2.85,2.83,2.83,0,0,1-2.25.68h-.81v.66h13.07v-.66h-.84c-1.27,0-2-.26-2.34-.77a5.35,5.35,0,0,1-.43-2.51l8.59-13.48v13.23a5,5,0,0,1-.53,2.85,2.78,2.78,0,0,1-2.23.68h-.81v.66H634v-.66h-.85a3,3,0,0,1-2.23-.64,4.92,4.92,0,0,1-.55-2.89v-16a4.91,4.91,0,0,1,.54-2.84,2.93,2.93,0,0,1,2.24-.65H634v-.66H620.92v.66h.81c1.22,0,2,.24,2.29.7a5.45,5.45,0,0,1,.47,2.67Z" transform="translate(-5.25 -3)"/><path class="cls-2" d="M262.59,297a5.64,5.64,0,0,1-.86,2.39,1.67,1.67,0,0,1-1.27.5,8.38,8.38,0,0,1-2.93-1A20.32,20.32,0,0,0,254,297.5a15.94,15.94,0,0,0-4-.5,12.89,12.89,0,0,0-9.3,3.54,11.4,11.4,0,0,0-3.69,8.55,11,11,0,0,0,1.35,5.4,14.67,14.67,0,0,0,3.86,4.43,49.35,49.35,0,0,0,8.24,4.8,37.76,37.76,0,0,1,5.71,3.27,9.33,9.33,0,0,1,2.4,2.66,5.74,5.74,0,0,1,.79,2.88,5.82,5.82,0,0,1-2.06,4.4,7.88,7.88,0,0,1-5.53,1.89,12.28,12.28,0,0,1-8.39-3.52q-3.88-3.51-5.25-10.21H237V341h1.15a4.27,4.27,0,0,1,1.45-1.89,3.07,3.07,0,0,1,1.71-.62,6.78,6.78,0,0,1,2.45.62,28.57,28.57,0,0,0,4.43,1.52,16.78,16.78,0,0,0,3.75.4,14.72,14.72,0,0,0,10.43-3.8,11.92,11.92,0,0,0,4.11-9.06,11.62,11.62,0,0,0-2.54-7.38q-2.58-3.22-10-6.85a65.17,65.17,0,0,1-6.73-3.63,10.58,10.58,0,0,1-2.88-2.88,4.66,4.66,0,0,1-.65-2.48,5.12,5.12,0,0,1,1.84-3.89,7.12,7.12,0,0,1,5-1.69,11.13,11.13,0,0,1,7.61,3.21,14.36,14.36,0,0,1,4.41,8.48h1.27l-.34-14Z" transform="translate(-5.25 -3)"/><path class="cls-2" d="M277.86,303.25a21,21,0,0,0-6.37,15.61,22.22,22.22,0,0,0,4.9,14.41q6.19,7.69,17.54,7.69t17.52-8.06a22.41,22.41,0,0,0,4.68-14.07,21.08,21.08,0,0,0-6.28-15.6q-6.27-6.23-16.32-5.85A20.29,20.29,0,0,0,277.86,303.25Zm21.58-2.19a12.24,12.24,0,0,1,3.95,5.85q1.55,4.14,1.55,12.47a35.34,35.34,0,0,1-1.52,11.37,12.68,12.68,0,0,1-4.25,6.33,8.78,8.78,0,0,1-5.33,1.55,8.62,8.62,0,0,1-7.38-3.59q-3.78-5.15-3.78-15.9,0-9.06,2.45-13.89,3-5.89,8.77-5.89A9.39,9.39,0,0,1,299.44,301.06Z" transform="translate(-5.25 -3)"/><path class="cls-2" d="M357.2,325.24a30.4,30.4,0,0,1-3.08,7.51,10.39,10.39,0,0,1-3.86,3.71,11.82,11.82,0,0,1-5.58,1.18h-3.51a14.57,14.57,0,0,1-3.75-.28,2.46,2.46,0,0,1-1.45-1.31,13.55,13.55,0,0,1-.37-4.11V305.16a12.74,12.74,0,0,1,.34-3.91,3,3,0,0,1,1.27-1.49,5.82,5.82,0,0,1,2.94-.65H342V298H319.57v1.14H321a5.5,5.5,0,0,1,2.81.61,3.1,3.1,0,0,1,1.38,1.41,13.7,13.7,0,0,1,.34,4v27.65a12.61,12.61,0,0,1-.34,3.9,2.79,2.79,0,0,1-1.24,1.49,5.89,5.89,0,0,1-3,.65h-1.39V340h37.32l1.58-14.76Z" transform="translate(-5.25 -3)"/><path class="cls-2" d="M389.38,333.27c.58,1.37.89,2.14.93,2.33a3.87,3.87,0,0,1,.18,1.14,1.65,1.65,0,0,1-.68,1.43,6.41,6.41,0,0,1-3.44.68h-.84V340h20.34v-1.15a4.86,4.86,0,0,1-3-1.11q-1.39-1.28-3.56-6.17L384.17,297.1h-.59l-15,33.54A25.28,25.28,0,0,1,365,337a6.27,6.27,0,0,1-3.72,1.87V340h14v-1.15a11.9,11.9,0,0,1-4.12-.74,2.82,2.82,0,0,1-1.43-2.61,9.07,9.07,0,0,1,.87-3.37l1.77-4.1h14.85Zm-16-7.53,6.45-14.48,6.26,14.48Z" transform="translate(-5.25 -3)"/><path class="cls-2" d="M426.2,320.84,439.75,340H453v-1.15A5.25,5.25,0,0,1,450,337.8a21.46,21.46,0,0,1-2.82-3.44l-10.11-14.23a13.86,13.86,0,0,0,6-2.88,9.94,9.94,0,0,0,3.34-7.69,10.43,10.43,0,0,0-2.23-6.65,11.21,11.21,0,0,0-5.76-3.89q-3.54-1-11.16-1H407.76v1.14a10,10,0,0,1,3.94.53,3.06,3.06,0,0,1,1.47,1.41,13,13,0,0,1,.42,4.29v27.28a12.84,12.84,0,0,1-.42,4.28,3.17,3.17,0,0,1-1.46,1.41,9.68,9.68,0,0,1-3.95.54V340h21.51v-1.15a9.71,9.71,0,0,1-3.93-.53,3,3,0,0,1-1.48-1.41,12.91,12.91,0,0,1-.42-4.29V320.84Zm.56-20.61q5,0,7.24,2.29t2.25,7.1A10.43,10.43,0,0,1,435,315a6.44,6.44,0,0,1-3.36,2.85,19.72,19.72,0,0,1-6.45.79h-1.77V300.23Z" transform="translate(-5.25 -3)"/><path class="cls-1" d="M245.27,250.39,97.49,105.44l41.72,91.21,92.63,68.59Z" transform="translate(-5.25 -3)"/><path class="cls-1" d="M244.56,251.1,99.61,109l40.3,87,92.63,68.58Z" transform="translate(-5.25 -3)"/><path class="cls-1" d="M247.39,248.27,102.44,100.49l91.21,41.72,68.59,92.63Z" transform="translate(-5.25 -3)"/><path class="cls-1" d="M248.1,247.56,106,102.61l87,40.3,68.58,92.63Z" transform="translate(-5.25 -3)"/><path class="cls-1" d="M212.26,343.51l-207,1.66,93.37-36.66,114.28,15Z" transform="translate(-5.25 -3)"/><path class="cls-1" d="M212.24,342.51l-203,1.59,89.4-34.59,114.28,15Z" transform="translate(-5.25 -3)"/><path class="cls-1" d="M471.74,343.51l207,1.66-93.37-36.66-114.28,15Z" transform="translate(-5.25 -3)"/><path class="cls-1" d="M471.76,342.51l203,1.59-89.4-34.59-114.28,15Z" transform="translate(-5.25 -3)"/><path class="cls-1" d="M437.73,250.39,585.51,105.44l-41.72,91.21-92.63,68.59Z" transform="translate(-5.25 -3)"/><path class="cls-1" d="M438.44,251.1,583.39,109l-40.3,87-92.63,68.58Z" transform="translate(-5.25 -3)"/><path class="cls-1" d="M435.61,248.27,580.56,100.49l-91.21,41.72-68.59,92.63Z" transform="translate(-5.25 -3)"/><path class="cls-1" d="M434.9,247.56,577,102.61l-87,40.3-68.58,92.63Z" transform="translate(-5.25 -3)"/><path class="cls-1" d="M343,210,345,3l35,94L363,211Z" transform="translate(-5.25 -3)"/><path class="cls-1" d="M344,210,346,7l33,90L362,211Z" transform="translate(-5.25 -3)"/><path class="cls-1" d="M340,210,338,3,303,97l17,114Z" transform="translate(-5.25 -3)"/><path class="cls-1" d="M339,210,337,7,304,97l17,114Z" transform="translate(-5.25 -3)"/><path class="cls-1" d="M458.4,344v-.16a117,117,0,0,0-234,0V344h-3v-.16a120,120,0,0,1,240,0V344Z" transform="translate(-5.25 -3)"/><path class="cls-1" d="M463.39,344v-.16a122,122,0,1,0-244,0V344h-3v-.16a125,125,0,0,1,250,0V344Z" transform="translate(-5.25 -3)"/><path class="cls-1" d="M471.41,344v-.17a130,130,0,0,0-260,0V344h-6v-.16a136,136,0,0,1,272,0c0,.06,0,.11,0,.16Z" transform="translate(-5.25 -3)"/><path class="cls-1" d="M477.41,344v-.17a136,136,0,0,0-272,0V344h-1v-.16a137,137,0,0,1,274,0c0,.06,0,.11,0,.16Z" transform="translate(-5.25 -3)"/><path class="cls-1" d="M470.41,344v-.17a129,129,0,0,0-258,0V344h-1v-.16a130,130,0,0,1,260,0c0,.06,0,.11,0,.16Z" transform="translate(-5.25 -3)"/></svg>